<svg id="圖層_1" data-name="圖層 1" xmlns="http://www.w3.org/2000/svg" viewBox="0 0 136.85 30"><defs><style>.cls-1{fill:#3d5a98;}.cls-2,.cls-3{fill:#fff;}.cls-3{font-size:20px;font-family:MicrosoftJhengHeiRegular, Microsoft JhengHei;}.cls-4{letter-spacing:-0.04em;}</style></defs><title>2020-12-17-出圖元件</title><rect class="cls-1" width="136.85" height="30" rx="4"/><path class="cls-2" d="M25.18,6.5H11.82A1.83,1.83,0,0,0,10,8.32V21.68a1.83,1.83,0,0,0,1.82,1.82H17V17.72H14.64V15H17V12.93a3.32,3.32,0,0,1,3.55-3.66,14.84,14.84,0,0,1,2.11.18v2.31H21.5A1.36,1.36,0,0,0,20,13.23V15h2.61l-.42,2.72H20V23.5h5.21A1.83,1.83,0,0,0,27,21.68V8.32A1.83,1.83,0,0,0,25.18,6.5Z"/><text class="cls-3" transform="translate(35.17 23.29) scale(1.01 1)"><tspan class="cls-4">F</tspan><tspan x="9.7" y="0">acebook</tspan></text></svg>