<svg id="圖層_1" data-name="圖層 1" xmlns="http://www.w3.org/2000/svg" viewBox="0 0 89.8 30"><defs><style>.cls-1{fill:#00b300;}.cls-2{font-size:20px;font-family:MicrosoftJhengHeiRegular, Microsoft JhengHei;letter-spacing:0.03em;}.cls-2,.cls-3{fill:#fff;}</style></defs><title>2020-12-17-出圖元件</title><rect class="cls-1" width="89.8" height="30" rx="4"/><text class="cls-2" transform="translate(35.51 22.29) scale(1.01 1)">LINE</text><path class="cls-3" d="M20.45,13v2.73a.12.12,0,0,1-.12.12h-.44a.15.15,0,0,1-.1,0l-1.25-1.69v1.62a.12.12,0,0,1-.13.12H18a.12.12,0,0,1-.13-.12V13a.13.13,0,0,1,.13-.13h.43a.11.11,0,0,1,.1.06l1.25,1.69V13a.13.13,0,0,1,.13-.13h.43a.13.13,0,0,1,.13.12Zm-3.15-.12h-.44a.12.12,0,0,0-.12.12v2.73a.12.12,0,0,0,.12.12h.44a.12.12,0,0,0,.12-.12V13a.12.12,0,0,0-.12-.12Zm-1.06,2.29H15.05V13a.12.12,0,0,0-.12-.12h-.44a.12.12,0,0,0-.12.12v2.73a.14.14,0,0,0,0,.09.12.12,0,0,0,.09,0h1.75a.12.12,0,0,0,.12-.12v-.44a.12.12,0,0,0-.12-.12Zm6.51-2.29H21a.12.12,0,0,0-.12.12v2.73a.12.12,0,0,0,.12.12h1.75a.12.12,0,0,0,.13-.12v-.44a.13.13,0,0,0-.13-.12H21.56V14.7h1.19a.12.12,0,0,0,.13-.12v-.44a.13.13,0,0,0-.13-.13H21.56v-.46h1.19a.12.12,0,0,0,.13-.12V13a.14.14,0,0,0-.13-.12Zm4.46-3.35v11a3.13,3.13,0,0,1-3.14,3.11h-11A3.12,3.12,0,0,1,10,20.45v-11a3.13,3.13,0,0,1,3.14-3.11h11A3.13,3.13,0,0,1,27.21,9.52Zm-2.37,4.7c0-2.8-2.81-5.08-6.26-5.08s-6.27,2.28-6.27,5.08c0,2.52,2.23,4.62,5.24,5,.73.16.65.43.48,1.41,0,.16-.12.62.55.34a20.28,20.28,0,0,0,4.92-3.64A4.49,4.49,0,0,0,24.84,14.22Z"/></svg>