<svg id="圖層_1" data-name="圖層 1" xmlns="http://www.w3.org/2000/svg" viewBox="0 0 400 115.16"><defs><style>.cls-1{font-size:25px;font-family:MicrosoftJhengHeiRegular, Microsoft JhengHei;}.cls-1,.cls-2{fill:#fff;}</style></defs><title>2020-12-17-出圖元件</title><text class="cls-1" transform="translate(112.5 108.63)">鋼鐵人有限公司</text><path class="cls-2" d="M63.34,39.58l.53.8-.77,1.21c.23.37.72.07,1,.43l.32,1a1.83,1.83,0,0,1-.74,1.17c-.15.12-.37.26-.42.42-.14.58-.53.63-1,.5l-.24.75c-.75.1-1.52,0-2.09.43-.11,0-.15,0-.17,0A3.78,3.78,0,0,0,57,45.88a11.09,11.09,0,0,1-1.91,0,11.47,11.47,0,0,0-3.72.37,1.83,1.83,0,0,0,0,1.73,1.35,1.35,0,0,1,.1.68,14,14,0,0,0,0,4.14c0,.34.12.67.14,1s0,.48-.12.58c-.47.4-.35.91-.3,1.41a4.31,4.31,0,0,0,.1.45A12.68,12.68,0,0,0,54,55.92a.81.81,0,0,0,.62-.73,18.93,18.93,0,0,0,.1-3.45,1.53,1.53,0,0,0-.32-.73c-.27-.39-.59-.74-.87-1.12a2.73,2.73,0,0,1-.67-1.61c.11-.08.28-.14.36-.27A1.89,1.89,0,0,1,55,47.16c.37,0,.74,0,1.12,0a1.7,1.7,0,0,1,1,.31,3.49,3.49,0,0,0,1.78.61,16.07,16.07,0,0,1,2,.4,8.09,8.09,0,0,1,.14,2.6A5.87,5.87,0,0,0,61,52.18a6.22,6.22,0,0,1-.76,3.31,3.12,3.12,0,0,0,.57.16c1.21.06,2.42.1,3.63.15l.4,0c1.86.16,2.92,1.39,3.75,2.9a.9.9,0,0,1,.11.68,2.87,2.87,0,0,0,0,1.51,3.89,3.89,0,0,0-.84,1.67,2.43,2.43,0,0,1-1.49,1.7,2.67,2.67,0,0,0-1.31,1l-.92.2c-.54-.36-1.11-.72-1.66-1.11a1.32,1.32,0,0,0-.93-.28,16.33,16.33,0,0,1-1.71,0c-.87,0-1.75,0-2.62-.09a27,27,0,0,1-2.71-.23A23.78,23.78,0,0,0,50,63.64a.65.65,0,0,0-.2,0c-1.49.29-3,.55-4.45.88s-3.2.82-4.8,1.19c-1.15.26-2.31.46-3.47.68a30.35,30.35,0,0,0-4.55,1.33c-.51.17-1,.36-1.56.56l.09.64a6.08,6.08,0,0,1-.51.4,1.28,1.28,0,0,1-1.82,0,5.66,5.66,0,0,0-2-1.17,2,2,0,0,1-.89-.64,2.38,2.38,0,0,0-.58-.56,1.88,1.88,0,0,1-.79-1.36A3,3,0,0,0,24,64.23a.85.85,0,0,1-.06-.91l.6-.15-.12-.89c.08-.08.16-.24.26-.27a5.08,5.08,0,0,1,2.25-.4,2.25,2.25,0,0,0,1-.09c1.39-.39,2.78-.81,4.17-1.21l3.21-.91c.16,0,.31-.1.51-.16,0-.22,0-.41,0-.61,0-.47-.09-1-.1-1.42a2.6,2.6,0,0,0-1.34-2.43A1,1,0,0,1,34,53.44c.53-.56,1-1.12,1.49-1.58s1.21-.74,1.57-1.34a1.68,1.68,0,0,1,1.93.55,8.51,8.51,0,0,1,1.23,1.45,7.33,7.33,0,0,0,.82,1,.83.83,0,0,1,.26,1,1.33,1.33,0,0,0,0,1,2.13,2.13,0,0,1-.34,1.92c-.12.19-.23.39-.34.59a1.33,1.33,0,0,0,1.13.08l3.63-.84a1.34,1.34,0,0,0,.24-.16l-.41-.77s0-.11,0-.17a2.1,2.1,0,0,0,0-1.4,10.26,10.26,0,0,1-.3-2.7,10.73,10.73,0,0,0-.38-2.4,3.33,3.33,0,0,1-.17-1.28A1.69,1.69,0,0,0,44,47.17a1.94,1.94,0,0,0-.64-.07c-.82.16-1.64.36-2.45.57-.29.07-.57.25-.86.29a12.27,12.27,0,0,0-4.41,1.93,3.39,3.39,0,0,0-.44.41,3.91,3.91,0,0,1-.8.62,2.11,2.11,0,0,0-1.07.82,1.62,1.62,0,0,1-1.52-1.57c-.08-.6-.24-1.19-.32-1.79,0-.26.15-.61,0-.78-.42-.63-.17-1.26-.09-1.87.11-.84.32-1.66.49-2.51a18.9,18.9,0,0,0,1.57-1.53A1.43,1.43,0,0,1,35,41.14c.07-.33.14-.65.2-1,.08-.53.18-1.07.24-1.61A5.47,5.47,0,0,0,35.09,36a4.26,4.26,0,0,1-.3-1.37,2.81,2.81,0,0,0-.71-1.84.53.53,0,0,0-.22.06c-.84.62-1.64,1.3-2.52,1.85-1.46.93-2.72,2.1-4.07,3.16a7.67,7.67,0,0,0-.86.85A5.94,5.94,0,0,1,25,39.8c-1.25.72-2.46,1.54-3.7,2.29a9.19,9.19,0,0,1-1.45.69,15.7,15.7,0,0,1-3.5.92c-.46.06-.92.08-1.47.12l-.83-.51a3.47,3.47,0,0,0-.43.15A1.37,1.37,0,0,1,12,43.29a3.82,3.82,0,0,0-2.43-.85,2.06,2.06,0,0,1-1.33-.67l-1.37-1a3.69,3.69,0,0,0-.62-.33,4.72,4.72,0,0,1-1.54-.95,3.52,3.52,0,0,0-.93-.6,10.12,10.12,0,0,1-2-1.29C1.21,37.12.63,36.73,0,36.31a.59.59,0,0,1,.24-.7c.3-.22.25-.51.19-.85A13.34,13.34,0,0,1,3.6,33.41a25.41,25.41,0,0,0,5.06-2,22.3,22.3,0,0,1,5-1.81,65.8,65.8,0,0,0,7.83-2.7c1.62-.67,3.15-1.53,4.73-2.29a28.47,28.47,0,0,0,5.39-3.4c1.19-.94,2.29-2,3.43-3l1.76-1.64a2.54,2.54,0,0,0,.28-.29c.78-.94,1.56-1.87,2.33-2.81a3.23,3.23,0,0,0,.4-.59,12.8,12.8,0,0,1,2.74-3.5c.83-.83,1.79-1.54,2.66-2.33a9.21,9.21,0,0,0,2.12-2.15,6.22,6.22,0,0,1,1.19-1.22,1.77,1.77,0,0,0,1.77-.25A2.85,2.85,0,0,1,51,3.15l1.76,4.14s.06.08.12.09c1.37.3,2.43,1.3,3.73,1.76a1.88,1.88,0,0,1,.73.52,4.25,4.25,0,0,0,1.32.92c.82.41,1.63.83,2.46,1.2a3,3,0,0,0,1.06.28,2.45,2.45,0,0,1,1.23.39,14.92,14.92,0,0,0,1.46.68,1.33,1.33,0,0,1,.36.17,7.41,7.41,0,0,0,2,1.29,4.17,4.17,0,0,1,2.2,3.1,8.93,8.93,0,0,1,.2,3.13,5.27,5.27,0,0,1-1.32,3.09c-.35.35-.65.75-1,1.08a2.21,2.21,0,0,0-.72,1,3.76,3.76,0,0,1-.49.76,2,2,0,0,1-1.35-.84,11.55,11.55,0,0,1-1.54-2.13c0-.14-.23-.24-.36-.34a24.83,24.83,0,0,0-2.18-1.64,6.89,6.89,0,0,1-1.31-1.11c-1-1.06-2.05-2.15-3.08-3.22-.3-.32-.65-.59-1-.88a6.35,6.35,0,0,1-1.59-1.83,9.43,9.43,0,0,1-.56-.84,1.73,1.73,0,0,0-1.69-1l-1.73,1.25c-.09.17-.22.44-.39.7a1.31,1.31,0,0,1-1.14.72,1.41,1.41,0,0,0-1.23.75c-.64.91-1.29,1.82-2,2.71a10,10,0,0,1-1,1.19,13.2,13.2,0,0,0-1.53,2.26,2.47,2.47,0,0,0-.17.57,5.59,5.59,0,0,0,.83,0,53.22,53.22,0,0,1,7.36-.37,8.23,8.23,0,0,1,1.11,0c1.94.28,3.9.06,5.85.16.8,0,1.6.15,2.4.26a1.92,1.92,0,0,1,.75.29c.16.1.36.29.37.45a6.48,6.48,0,0,0,.54,1.59c-.61.92-.61.92-.45,1.81l-.54.48,0,.63-.88.84-1.34,0a5.5,5.5,0,0,0-1,.05,3.12,3.12,0,0,1-1.69-.1c-.45-.14-.91-.27-1.35-.43a4.26,4.26,0,0,0-3.34,0,3.68,3.68,0,0,1-1.68.28,10.06,10.06,0,0,0-2.9.26,13.63,13.63,0,0,1-3.12.17c-.64,0-1.28,0-1.92,0a3.33,3.33,0,0,0-1.66.52c.33.82,0,1.77.59,2.55.24,0,.47,0,.7-.08a32.28,32.28,0,0,1,5.2-.65,19.64,19.64,0,0,0,2.4-.29A52.19,52.19,0,0,1,55.71,31a10,10,0,0,0,2-.3,5.86,5.86,0,0,1,2.57.26c.69.17,1.36.37,2.05.52a3.12,3.12,0,0,1,1.53.67c0,.09,0,.18-.06.21A5.48,5.48,0,0,0,62.34,34a2.85,2.85,0,0,1-1,.86,2.2,2.2,0,0,0-.5.34,3,3,0,0,1-2.36.64,10.18,10.18,0,0,0-1.91.08c-2.14.22-4.29.43-6.43.6a42.4,42.4,0,0,0-5.61.72,8.17,8.17,0,0,0-2.26.49c-.29.15-.72,0-1.09.08-.7.07-.88.24-.91.95a3.32,3.32,0,0,1-.47,1.63,3.2,3.2,0,0,0-.21.55,4.55,4.55,0,0,0,.72,0c2.29-.39,4.61-.6,6.87-1.14a19,19,0,0,1,2.6-.32,42.48,42.48,0,0,1,5.84-.42c1.28,0,2.55.19,3.83.27a6.87,6.87,0,0,0,1.2,0,2.34,2.34,0,0,1,1.47.13A3.49,3.49,0,0,0,63.34,39.58Z"/><path class="cls-2" d="M121.3,69.64l-.76-.43-1.69,1.94-.29-.14c-.69-.33-1.46-.56-1.74-1.41-.85-.39-1-1.23-1.2-2,0-.13-.07-.3-.16-.37-.6-.42-.53-1.06-.5-1.66s.11-1.07.17-1.61c0-.17.09-.36,0-.51a2.52,2.52,0,0,1,.08-1.49,8.53,8.53,0,0,0,0-2.42c0-.68-.08-1.35-.09-2a17.93,17.93,0,0,0-.26-2.53c-.22-1.2-.33-2.42-.47-3.63a23.57,23.57,0,0,1-.08-3.36,5.58,5.58,0,0,0-.07-.91c0-.29-.14-.58-.21-.88-.26.2-.09.46-.11.69s0,.55,0,.82-.07.6-.11.91l-.09.8c0,.27,0,.54-.08.81s-.12.53-.19.84a1.91,1.91,0,0,0-.66-.14,2.46,2.46,0,0,0-.63.31l-1.43.77c-.35.76-.55,1.63-1.47,2-.23-.06-.49-.15-.75-.2a1.16,1.16,0,0,1-1-.93,5.37,5.37,0,0,0-1-2.09,4.5,4.5,0,0,1-.65-1.36,1.31,1.31,0,0,1,.28-1.31l-.28-.68a7.9,7.9,0,0,0-3.86.11,6.33,6.33,0,0,1-2.56.47,2.66,2.66,0,0,0-1.25.34,11.15,11.15,0,0,1-2.57.88,2.5,2.5,0,0,0-.68.16c-1.62.91-3.46,1.35-5,2.44-.16.12-.41.24-.44.39-.06.46-.4.62-.73.75a2.36,2.36,0,0,0-1.48,1.43.9.9,0,0,1-.64.6A2.16,2.16,0,0,1,85,53.37c-.12-.36-.21-.72-.35-1.06a3.86,3.86,0,0,0-.57-1.06,1.36,1.36,0,0,1-.27-1.59,2.55,2.55,0,0,0,0-2.08,3.12,3.12,0,0,1-.13-.69c-.13-.73.08-1.48-.07-2.21a1,1,0,0,1,.4-.91A5.43,5.43,0,0,0,85.36,41a11.86,11.86,0,0,1,1.1-3.16,2.91,2.91,0,0,0,.26-.77,1.2,1.2,0,0,0-.49-1.43,3.65,3.65,0,0,1-.51-.45,8.46,8.46,0,0,1-4-.44,1.21,1.21,0,0,0,0,1c.24,1.4.51,2.8.7,4.2A19.13,19.13,0,0,1,82.46,42c0,1.6.11,3.19.08,4.78a22.93,22.93,0,0,1-.24,4.46c-.11.53-.09,1.09-.2,1.62s-.31,1.17-.44,1.76c-.18.79-.3,1.59-.48,2.38a5,5,0,0,1-.46,1.45,10.16,10.16,0,0,0-1.29,4.35,8.11,8.11,0,0,1-.53,2.06,2.56,2.56,0,0,1-.34.63,12.29,12.29,0,0,0-1.15,1.78c-.08.14-.24.22-.39.37a8.67,8.67,0,0,1-2.37-2.23l-.75.31s-.11-.08-.11-.12a.86.86,0,0,0-.44-.75,3.58,3.58,0,0,1-1.18-1.6,9.55,9.55,0,0,1-.71-2.84,4.4,4.4,0,0,1,.47-3.15,5.29,5.29,0,0,0,.57-1.51,5.65,5.65,0,0,1,.67-1.58,13.31,13.31,0,0,0,2-5.92c.12-1.28.16-2.57.23-3.86s.19-2.58.24-3.87c0-.94,0-1.9,0-2.85,0-1.39-.09-2.78-.25-4.16-.22-2-.56-4-.83-5.95-.18-1.31-.33-2.63-.49-3.94,0-.41,0-.82-.12-1.22a2.48,2.48,0,0,0-.61-1.36A17.58,17.58,0,0,0,72,19.32a1.18,1.18,0,0,1-.22-.45c-.28-.77-.16-1,.56-1.34a6.26,6.26,0,0,0,1.18-.76,1.11,1.11,0,0,1,1.23-.2,5.89,5.89,0,0,1,2.08,1.21,6.81,6.81,0,0,0,1.29,1,5.5,5.5,0,0,1,1,1c.24.28.4.63.64.9a4.92,4.92,0,0,1,.92,1.79A1.91,1.91,0,0,1,80.59,24a4.45,4.45,0,0,0-.29,2.78c.09.94.28,1.88.43,2.82a1.26,1.26,0,0,0,.14.29l1.39.34a3,3,0,0,1,1.4-.68,2,2,0,0,0,.64-.28,9.24,9.24,0,0,1,3.18-1.88,2,2,0,0,0-.31-1.33c-.19-.32-.39-.63-.6-.94a.92.92,0,0,1-.16-.67,4.21,4.21,0,0,0-.08-.78,1.26,1.26,0,0,0-.65-1,2.46,2.46,0,0,1-.48-.37A.76.76,0,0,1,85,21.9a3.68,3.68,0,0,1,.22-1.8,1.1,1.1,0,0,1,1-.69l1.41-.05a1.3,1.3,0,0,1,1,.41,2,2,0,0,0,2.2.55,1.6,1.6,0,0,1,1.74.49,4,4,0,0,1,1.19,3.8c0,.23-.1.45-.16.76a2.57,2.57,0,0,0,.71.05,33.5,33.5,0,0,0,3.43-.81,2.12,2.12,0,0,1,2.11.08c.43-.5.18-.93.07-1.32a8.64,8.64,0,0,0-.55-1.21,2.41,2.41,0,0,1,.37-1.68,1.21,1.21,0,0,0-.11-1.34c-.25-.4-.49-.81-.79-1.32l-.92-.19a11.53,11.53,0,0,1,.75-1.49,1.05,1.05,0,0,1,1.31-.48.88.88,0,0,0,.49.1,2.27,2.27,0,0,1,2,.7,3.93,3.93,0,0,0,1.81.8,1.5,1.5,0,0,1,.87.47,2.92,2.92,0,0,0,.42.44,2.05,2.05,0,0,1,.47,2.67c-.13.31-.31.59-.49.93a3.52,3.52,0,0,1-.37,2.49,9.56,9.56,0,0,1,4.21.74,5.29,5.29,0,0,1,1.76.91c0,.53.55,1.17-.23,1.69l.27.64a2.52,2.52,0,0,1-.82,1.38,3.52,3.52,0,0,0-.65.9c-.06.11,0,.3,0,.48a10.74,10.74,0,0,1-3.1.17c-.81,0-1.61-.13-2.41-.24a6.56,6.56,0,0,0-2.21,0c-.43.08-.87.09-1.31.15a5.07,5.07,0,0,0-.52.15,3.29,3.29,0,0,0,2.12,1.14,14.08,14.08,0,0,1-.2,4.09,22,22,0,0,0-.45,2.7,2.9,2.9,0,0,0,.07.71,1.77,1.77,0,0,1,.05.5,6.92,6.92,0,0,0,0,2.13,1.26,1.26,0,0,0-.66,1.12,7,7,0,0,0,3.44-.23,2.91,2.91,0,0,0,.21-.63,8.2,8.2,0,0,0,.08-1.21,2.15,2.15,0,0,0-.11-.8,5.74,5.74,0,0,1-.25-2.5,2.54,2.54,0,0,0-.39-2,2.18,2.18,0,0,1,.47-.16c.32,0,.69.06.88-.34a.09.09,0,0,1,.08-.05,13.51,13.51,0,0,1,2.17-.38,2.5,2.5,0,0,1,1.66.86c.33.34.66.67,1,1a8.88,8.88,0,0,1,2,2.43,10.9,10.9,0,0,1,.63,1.93c.2.64.39,1.28.6,2,.29-.17.18-.39.18-.56a5.65,5.65,0,0,0-.05-1,48.91,48.91,0,0,1-.14-5,8.24,8.24,0,0,0-.07-1.22,9,9,0,0,1,0-2.74,7.55,7.55,0,0,0-.1-2.72,13.3,13.3,0,0,1-.12-6.05,3.09,3.09,0,0,0,0-1.51,3.85,3.85,0,0,1-.1-1,3.31,3.31,0,0,0-.28-1.88c-.21-.34,0-.73.2-1.09a12.89,12.89,0,0,1-.51-1.21,9.45,9.45,0,0,1-.38-1.57c0-.23.17-.48.29-.82l-.32-2.29.28-.7c-.14-.1-.23-.2-.3-.2a12,12,0,0,0-1.9.12,6.49,6.49,0,0,1-2.11,0,12.55,12.55,0,0,0-3.62,0c-.37.06-.74,0-1.11.08-.54,0-1.07.09-1.61.17-1.23.16-2.45.4-3.69.5A5.9,5.9,0,0,0,96,13.3a5.81,5.81,0,0,1-2.24.55c-1.47.13-3,.26-4.41.49a12.58,12.58,0,0,0-2.1.69c-.49.17-.67.63-.91,1A3.89,3.89,0,0,1,84.11,16l-1-.37a4.59,4.59,0,0,0-2-.29,3.28,3.28,0,0,1-3.14-1.21,1.11,1.11,0,0,0-.32-.21c0-.05-.05-.09,0-.11l.14-.31-.45-.57a1.34,1.34,0,0,1,0-.24,7.87,7.87,0,0,0,.29-.76,2.12,2.12,0,0,1,1-1.33,11,11,0,0,1,2.72-1.32A3.41,3.41,0,0,0,82,8.93a5.33,5.33,0,0,1,2.57-.81,2.72,2.72,0,0,0,.8-.12,11.65,11.65,0,0,1,2.69-.39l1.71-.18c.57,0,1.14,0,1.71-.12.83-.1,1.67-.2,2.49-.37a10.91,10.91,0,0,1,2.21-.16,13.68,13.68,0,0,0,1.81,0,27.47,27.47,0,0,1,5.44,0,7.15,7.15,0,0,0,1.31,0,10,10,0,0,1,3.32.1,3.52,3.52,0,0,1,.93.36,3.55,3.55,0,0,0,2.35.34.69.69,0,0,0,.25-.14V5.86a4,4,0,0,0,.48-.28,3.26,3.26,0,0,0,1.37-1.45,2.59,2.59,0,0,1,.43-.68,1.58,1.58,0,0,0,.48-1.28,10.61,10.61,0,0,0,2.2,1.12,1.06,1.06,0,0,1,.74.74,2.16,2.16,0,0,0,.62,1c.32.34.55.78.84,1.15A21.12,21.12,0,0,0,120.26,8,2.86,2.86,0,0,1,121,10a1.88,1.88,0,0,0,.24,1,1.09,1.09,0,0,1,0,1c-.25.7-.5,1.4-.72,2.11a1.6,1.6,0,0,0,0,.69,2.52,2.52,0,0,1-.33,1.85,2,2,0,0,0-.2,1.75,9.37,9.37,0,0,1,.38,2.8,14,14,0,0,0,.37,2.3c.1.57.21,1.13.31,1.7a5.26,5.26,0,0,1-.26,2.61,3.12,3.12,0,0,0,0,1.89c.2.79.41,1.58.56,2.38a4.2,4.2,0,0,1,.07,1.41,7.31,7.31,0,0,0,.2,3,11.74,11.74,0,0,1,.25,2.83,11,11,0,0,0,.37,2.5c.13.6.25,1.2.35,1.8.17,1.07.29,2.15.51,3.21a15.32,15.32,0,0,1,.29,3.24,9.41,9.41,0,0,0,.17,3.13c0,2,.38,3.92.29,5.89a4.48,4.48,0,0,0,0,.82,2.69,2.69,0,0,1-.41,2,2.89,2.89,0,0,0-.45,2.13,1.65,1.65,0,0,1-.33,1.45,3.82,3.82,0,0,0-.8,1.93,3.4,3.4,0,0,1-.4,1.34A3,3,0,0,0,121.3,69.64ZM95.09,44.25c0-.28-.07-.5-.11-.72a6,6,0,0,1-.17-.67c-.09-1-.13-2-.26-3-.22-1.68-.5-3.35-.76-5a.88.88,0,0,0-.12-.26l-.83-.37c-.07-.22-.13-.41-.2-.61-.17-.52-.29-.62-.78-.54a7.89,7.89,0,0,0-2.34.59c-.23.11-.5.18-.62.49a3.46,3.46,0,0,0,1.92,1.36,2.08,2.08,0,0,1,.05.41,1.8,1.8,0,0,0,.72,1.58,13.61,13.61,0,0,1,1.07,1.18c0,.64-.07,1.14-.12,1.64a1.54,1.54,0,0,1-.19.77,1.46,1.46,0,0,0-.3,1.14,6.67,6.67,0,0,1-.16,1.61c0,.22-.1.44-.17.73a4.5,4.5,0,0,0,.73.1A23.32,23.32,0,0,0,95.09,44.25ZM81,31.78,81.29,33a.86.86,0,0,0,.55-.88Z"/><path class="cls-2" d="M325.14,8.62l1.13-.54a1.85,1.85,0,0,0,1.41-.16,2.18,2.18,0,0,1,1-.11,8.33,8.33,0,0,1,3.3.64,5.47,5.47,0,0,1,1.23.57,3.68,3.68,0,0,0,1.27.53,2.87,2.87,0,0,1,1.84,1.68,1.38,1.38,0,0,1,.17.52,3.57,3.57,0,0,0,1.06,2.08c.32.39.65.77.93,1.19a.75.75,0,0,1-.09,1c-.64.52-.88,1.32-1.45,1.94.07.3.14.62.23.93a1.87,1.87,0,0,1-.59,2.07c-.8.71-1.61,1.42-2.44,2.11a1.93,1.93,0,0,0-.71.93,14.72,14.72,0,0,1-1.37,3.43,2.28,2.28,0,0,0-.17.57l.62.38c1,.6,2,1.17,3,1.8a9,9,0,0,1,2.18,1.91,11.61,11.61,0,0,0,2.38,2.16,2.47,2.47,0,0,1,.49.42,5.28,5.28,0,0,0,1.47,1.07l2.06,1.13c.22.12.45.2.68.31.08-.3.09-.64.25-.79a1.6,1.6,0,0,0,.6-1.11,7.88,7.88,0,0,1,1-.22,14.36,14.36,0,0,0,3.44-.61,2,2,0,0,1,.73-.09A1.25,1.25,0,0,1,352,35.54c.06,1.72-.31,2.21-1.6,2.89-.49.25-.95.46-1.13,1.11,1.38,1.08,3.11,1.51,4.47,2.52.74,0,1.16-.47,1.64-.8.21-.13.31-.48.4-.74a1.15,1.15,0,0,1,.89-.86c.86-.16,1.65-.54,2.5-.75a2.75,2.75,0,0,1,2,.18,4.88,4.88,0,0,1-.24,5.43,1.51,1.51,0,0,0-1.36.88,2.19,2.19,0,0,0,.46.34c1.75.69,3.52,1.35,5.27,2,.76.3,1.51.63,2.24,1a11.52,11.52,0,0,0,4.3,1.09,13.29,13.29,0,0,1,3.93.85,20.78,20.78,0,0,0,2.46.67A12.79,12.79,0,0,1,380,52c.78.32,1.63.49,2.44.74.47.14.93.34,1.4.49a7.47,7.47,0,0,0,1.23.34A29.83,29.83,0,0,1,391,54.94a3.8,3.8,0,0,1,.59.23A23.57,23.57,0,0,0,396,56.89a5.78,5.78,0,0,1,2.84,1.33c.3.32.88.28,1.14.75a1.78,1.78,0,0,1-.95,1.79c-.39.19-.69.59-1.09.84a2.89,2.89,0,0,1-1.63.65c-.22,0-.44.21-.66.33-.66.34-1.31.72-2,1a6,6,0,0,1-2.07.37,7.79,7.79,0,0,0-4.94,1.9,1.08,1.08,0,0,1-.54.25c-1.14.23-2.3.41-3.44.67a17.34,17.34,0,0,0-2.34.67,4.88,4.88,0,0,1-2.21.13,8.42,8.42,0,0,1-1.15-.24L377,67a2.69,2.69,0,0,0-1.6-.29,7.74,7.74,0,0,1-1.8,0c-1.23-.1-2.47-.14-3.73-.21l-.48.86c-.08,0-.16.05-.22,0a3,3,0,0,1-.57-.27c-.68-.45-1.35-.93-2-1.39a3.45,3.45,0,0,0-.83-.47c-1.66-.52-3-1.72-4.48-2.49-.13-.06-.21-.19-.32-.28-1.35-1.06-2.66-2.2-4.07-3.16-1.06-.73-2.14-1.41-3.17-2.19-2.09-1.58-4.25-3-6.25-4.73-1.53-1.29-3.16-2.46-4.6-3.88-.69-.67-1.5-1.22-2.22-1.86a41.28,41.28,0,0,1-3.11-2.81c-.54-.57-1.18-1.05-1.74-1.61-1-1-1.92-2-2.82-3a7.23,7.23,0,0,0-2.09-1.66,3.79,3.79,0,0,0-1.3-.41,3.28,3.28,0,0,1-1.3-.43c-.68-.37-1.39-.71-2.07-1.06a2.68,2.68,0,0,0-.41.26c-.58.63-1.17,1.27-1.74,1.91a3.54,3.54,0,0,1-1.11,1c-.21.09-.35.35-.51.54-.36.45-.7.93-1.08,1.36a6.58,6.58,0,0,1-1.67,1.48,9,9,0,0,0-2.84,2.59,13.37,13.37,0,0,1-1,1.14,5.47,5.47,0,0,0-1.23,1.62c-.1.25-.37.43-.57.64-.43.48-.89.94-1.29,1.45a16.57,16.57,0,0,1-1.73,1.92c-.74.68-1.38,1.47-2.08,2.19a12.39,12.39,0,0,1-2.56,2.45c-.53.3-1,.69-1.5,1a31.25,31.25,0,0,0-2.72,2.28,4.21,4.21,0,0,1-.85.64c-1.41.61-2.65,1.55-4,2.19a6,6,0,0,1-3.62.52,10.06,10.06,0,0,1-1.57-.22,4.31,4.31,0,0,0-2.77-.16,2.48,2.48,0,0,1-2-.54,10.43,10.43,0,0,1-1.12-.93l.09-.67c-.11-.06-.17-.12-.23-.12a4.41,4.41,0,0,1-.73,0,8.46,8.46,0,0,0-.8-.28,3.65,3.65,0,0,0-.84.15l0-.9c0-.08-.07-.17-.12-.2-.81-.52-1.5-1.19-2.28-1.74a2.58,2.58,0,0,0-1.15-.48,1.78,1.78,0,0,1-1.11-.47c0-.43.28-.54.51-.66a5.17,5.17,0,0,0,1.14-.79,2.21,2.21,0,0,1,1.41-.67,2.39,2.39,0,0,0,.87-.38,7.62,7.62,0,0,0,1.11-.64,2.55,2.55,0,0,1,2-.52,1.81,1.81,0,0,0,.73-.09,16.29,16.29,0,0,0,3.51-1.24,11.18,11.18,0,0,1,2.1-.75,15.45,15.45,0,0,0,3.15-1.29,38.83,38.83,0,0,0,6.68-4.66,48.19,48.19,0,0,0,4.65-4.5,11,11,0,0,1,.86-.81,47.93,47.93,0,0,0,7.05-7.73c1.44-2,3-3.9,4.47-5.86a7.09,7.09,0,0,0,.52-.94,5.42,5.42,0,0,1,.66-1.24,15.23,15.23,0,0,0,2.19-3.35c.52-1,1.13-1.94,1.67-2.92.37-.67.69-1.36,1-2s.54-1.11.83-1.66a2.24,2.24,0,0,0,.22-1.48c-.05-.25-.12-.5-.17-.75a2,2,0,0,0-.66-1.21A1.25,1.25,0,0,1,325.14,8.62Z"/><path class="cls-2" d="M205.77,14.85a13.67,13.67,0,0,0,1.57.14c1,0,2,.08,3,.15a2.36,2.36,0,0,0,.84-.05,5,5,0,0,1,2.11,0,1.2,1.2,0,0,1,1.08,1.43,15,15,0,0,0-.27,2.08c-.48,2.53-.54,2.39-2.77,3a2.61,2.61,0,0,1-.84.06c-1-.06-2-.15-3-.21-.38,0-.77,0-1.13,0-.45.61-.16,1.23-.29,1.86a7.29,7.29,0,0,0,2.85.24,2.35,2.35,0,0,1,1.46,0,1,1,0,0,1,.79,1.22,3.4,3.4,0,0,0-.08.53,2.79,2.79,0,0,1-1.71,2.61,9.74,9.74,0,0,1-1.33.67,3.1,3.1,0,0,1-1.13.21,18.57,18.57,0,0,1-2.11-.18,3.29,3.29,0,0,0-1.46.17,14,14,0,0,1-4.48.72,7.47,7.47,0,0,0-2.87.69,3.32,3.32,0,0,0-.73.57,9.21,9.21,0,0,1-.94-.35c-.39-.17-.74-.42-1.14-.56a1.27,1.27,0,0,1-1-1.27c0-.17,0-.35,0-.56l.79-.64c0-1,.75-1.46,1.6-1.85a17.3,17.3,0,0,1,3.79-1l.51-.11a2,2,0,0,0-.05-1.28,1.15,1.15,0,0,0-1-.11,13.7,13.7,0,0,0-2.11.69,1.67,1.67,0,0,1-1.43.05,6.37,6.37,0,0,1-1.12-.61,1.77,1.77,0,0,0-1.51-.34c-1.22.3-1.79-.57-2.43-1.31a3.19,3.19,0,0,1-.36-.83,5.14,5.14,0,0,0,.92-2.13c-.43.12-.83.21-1.21.34a3.15,3.15,0,0,1-2.28-.17l-5.6-2.32c-.73-.3-1.43-.64-2.18-.87a8.68,8.68,0,0,0-2-.37c-.81-.07-1.62,0-2.56,0a5,5,0,0,0-1.12,1.39,30.43,30.43,0,0,1-2.7,3.84c-1.06,1.43-2.17,2.83-3.25,4.24-.14.19-.25.4-.47.75a15,15,0,0,0,1.87-.53,6.83,6.83,0,0,1,2.15-.52,40,40,0,0,0,4.51-.75,4,4,0,0,1,.84-.11,22.84,22.84,0,0,0,3.6-.33,9.86,9.86,0,0,1,5,.42c.72.3,1.4.69,2.15.92a1.25,1.25,0,0,1,.86,1c.16.73.34,1.46.48,2.19a1,1,0,0,1-.6,1.13,1.45,1.45,0,0,1-1.13.17.56.56,0,0,0-.76.18,1,1,0,0,1-.78.48c-.27.07-.53.17-.8.25a2.11,2.11,0,0,1-1.14.16.65.65,0,0,0-.5.09,1.21,1.21,0,0,1-1.38.13,2.76,2.76,0,0,0-.71-.08,1.87,1.87,0,0,0-.29,1.37,3.9,3.9,0,0,1-.08,1.7,2,2,0,0,0,.05.67c.25,0,.49,0,.64,0a1.08,1.08,0,0,1,1-.07,7.28,7.28,0,0,0,3.14.36,10.07,10.07,0,0,1,3.75,0l.15.94c-.34.25-.11.58-.14.88a.9.9,0,0,1-.2.37c-.25.42-.5.85-.78,1.3l.89,1.39a4.87,4.87,0,0,1-2,.82l-4.11.53q-.85.11-1.68.27a3.2,3.2,0,0,0-.81.26,1,1,0,0,0-.64,1,4.15,4.15,0,0,1-.3,1.67,10,10,0,0,0-.4,2.09,22.52,22.52,0,0,0-.18,3.94,21.18,21.18,0,0,1,0,2.76,6.75,6.75,0,0,0,3.49.06c-.07-.45-.15-.9-.22-1.35-.22-1.38-.43-2.75-.65-4.13a3.11,3.11,0,0,0-.68-1.54,1.18,1.18,0,0,1,.19-1.85l.36-.27,1.5.56a5.75,5.75,0,0,1,2.89-.25,3,3,0,0,1,1,.26,4.5,4.5,0,0,0,.82.22,14.3,14.3,0,0,1,1.81.62,1.27,1.27,0,0,1,.63,1.94,3.4,3.4,0,0,1-.41.75,1.65,1.65,0,0,0-.28,1.42,3.83,3.83,0,0,1-.5,2.88c-.13.2-.3.38-.44.57l-.5.66.91.37a10.24,10.24,0,0,1,2.32,1,2,2,0,0,1,.95,1.52,2.8,2.8,0,0,0-1.13,1.81,3.91,3.91,0,0,1-.68.28,1.12,1.12,0,0,0-.7.45,1.79,1.79,0,0,1-.75.55,2.42,2.42,0,0,1-2.05.16.46.46,0,0,0-.2,0,8.75,8.75,0,0,1-1.7,0,9.51,9.51,0,0,0-1.59-.51,6.41,6.41,0,0,0-1.16,0,47.6,47.6,0,0,0-5.56.87,17.69,17.69,0,0,0-5.46,1.24,14.85,14.85,0,0,1-2.79.64A28.45,28.45,0,0,0,161,63.12a.8.8,0,0,0-.55.6,1.41,1.41,0,0,1-.75,1c-.45.27-.71.81-1.35.9l-.7-.22a13.65,13.65,0,0,1-3.21.92,1.25,1.25,0,0,1-.72,0,7.68,7.68,0,0,1-1.62-1c-.7-.64-1.31-1.39-2-2.09a5.08,5.08,0,0,1-1.2-3.46,1.28,1.28,0,0,1,.19-.59c.25-.47.52-.93.81-1.44l.8-.12L151,57a6.86,6.86,0,0,1,2.59.13.74.74,0,0,0,.41.06,16.45,16.45,0,0,0,2-.37c1.66-.5,3.31-1.05,5-1.58a5.58,5.58,0,0,0,.56-.25c-.29-.4-.51-.75-.78-1.06a3.38,3.38,0,0,1-.92-2.64,1.75,1.75,0,0,0-.54-1.45,13,13,0,0,1-1-1.32c.15-.33.28-.57.37-.83s.13-.47.19-.71a2.55,2.55,0,0,1,2.06-.18,3.77,3.77,0,0,0,1.57,0,.67.67,0,0,0,.49-.34,1,1,0,0,1,1-.5,2.24,2.24,0,0,1,1.5.45L166.8,46a2.22,2.22,0,0,1,1.58,1.52,12.79,12.79,0,0,1,.94,2.42c-.12.16-.2.38-.37.49a1.86,1.86,0,0,0-.7,2.07c.05.31.12.62.19,1L172,53a1.25,1.25,0,0,0,.1-1c-.11-.85-.23-1.7-.35-2.55,0-.24-.07-.49-.12-.74-.34-1.49-.68-3-1-4.49a8,8,0,0,0-.75-2.15,6.52,6.52,0,0,0-2.28.4A15.14,15.14,0,0,0,164,43.6c-1.17.18-2.28.78-3.52.6a3.09,3.09,0,0,0-.94.13l-1.74.38a8.37,8.37,0,0,0-.66-.6,1.32,1.32,0,0,1-.6-1.08,2.94,2.94,0,0,0-.25-.91,1.26,1.26,0,0,1-.09-1,2.72,2.72,0,0,0,1.75-.69l-.68-.42c1.25-.68,2.44-1.36,3.68-2a29.62,29.62,0,0,1,3.87-1.47c1.31-.43,2.68-.63,3.95-1.14a6.85,6.85,0,0,0-.78-3,.63.63,0,0,0-.71-.37,12,12,0,0,0-1.47.16,1.78,1.78,0,0,1-1.69-.32,1.25,1.25,0,0,0-1-.23h-1.31c-1.15,1.38-2.31,2.78-3.48,4.16a11.3,11.3,0,0,1-1,1c-.57.52-1.16,1-1.76,1.55s-1.08.81-1.63,1.2a17.5,17.5,0,0,1-4.83,2.65,25.86,25.86,0,0,1-2.58.57,1.25,1.25,0,0,1-.43,0,32.36,32.36,0,0,0-3.81-.26,2.63,2.63,0,0,1-.8-.24c-.42-.18-.83-.38-1.24-.59-.17-.1-.4-.23-.46-.4-.14-.4-.46-.46-.78-.62A22.18,22.18,0,0,1,137,39.37a2.32,2.32,0,0,0-1.14-.51c-.49,0-.7-.57-1.27-.57l.47-.7-.41-.85.7-2,3.15-2.87a4.33,4.33,0,0,1,1.67-1.11,6.33,6.33,0,0,1,1.14-.2c.49,0,1,0,1.47-.1,1.13-.16,2.24-.36,3.36-.55a8,8,0,0,0,3-1.22c1.58-1,3.17-2,4.67-3.18a34.62,34.62,0,0,0,4.27-3.86c2.4-2.54,4.52-5.32,6.74-8,.66-.8,1.34-1.57,2-2.33a12.93,12.93,0,0,0,1.78-2.26c.14-.25.24-.51.36-.78l-.5-.95.85-.16a23.16,23.16,0,0,0,1.49-1.79,6.68,6.68,0,0,0,.6-1.36c.09-.23.14-.48.25-.7a1.16,1.16,0,0,1,1-.73c.63-.06,1.27-.15,1.9-.16s1,.3,1,1c0,.17,0,.35,0,.58l.47.38a2.92,2.92,0,0,1,1.19,1.72,1.8,1.8,0,0,0,.46.83,6.57,6.57,0,0,1,1.45,2.52,6.62,6.62,0,0,0,.8.07,26.16,26.16,0,0,1,4.75.52,6.48,6.48,0,0,1,1.11.35c.27.09.52.22.8.29a12.16,12.16,0,0,1,3.19,1.42,16,16,0,0,0,1.63.74c.43.19.87.31,1.28.52a1.19,1.19,0,0,1,.66,1.42,3,3,0,0,1-.78,1.73s0,.11,0,.18l5.61-1.43a1.75,1.75,0,0,0,.06-.34c0-.25-.1-.49-.15-.73L197,13.6l.18-1.55c-.1-.18-.24-.39-.34-.61a3.39,3.39,0,0,1,.05-3.27,6.86,6.86,0,0,0,1-2.45,1.22,1.22,0,0,1,.41-.59c.3-.3.64-.56,1-.83a.82.82,0,0,1,.36-.22,4.82,4.82,0,0,0,1.68-.59,1.32,1.32,0,0,1,1.57.29,2.59,2.59,0,0,1,.37.37c.73,1.19,1.45,2.37,2.16,3.57a1.06,1.06,0,0,1,.13.5c0,.75,0,1.51-.06,2.25a10,10,0,0,1-.33,1.4,2.81,2.81,0,0,1,.27.52,1.31,1.31,0,0,1,.09.72A1.86,1.86,0,0,0,205.77,14.85Z"/><path class="cls-2" d="M216.18,63.33c-.41-1.08.58-1.87.41-2.92a1.22,1.22,0,0,0-.2-.27,1,1,0,0,1-.33-1.24,11.66,11.66,0,0,1,.56-1.7,11.51,11.51,0,0,0,.5-2.06,1.84,1.84,0,0,0,.62-1,.66.66,0,0,1,.16-.28L220.36,51c0-.05.08-.14.14-.15.9-.16,1.11-1,1.57-1.62s1-1.47,1.51-2.2a9.24,9.24,0,0,1,.87-1.09,9.94,9.94,0,0,0,1.67-2.39,3.93,3.93,0,0,0-.19-.58,54.14,54.14,0,0,1-2.13-5,29.9,29.9,0,0,0-1.3-2.82c-.64-1.27-1.34-2.51-2.06-3.85l-1.61,0c-1-.05-1.9-.12-2.85-.14a6,6,0,0,0-.94.11c-.49.07-1,.16-1.47.2a1.16,1.16,0,0,1-1-.48l-.13-2.07c.08-.07.12-.15.18-.17a3,3,0,0,0,2-1.12,10.62,10.62,0,0,1,4.08-2.42,1.78,1.78,0,0,0,.34-.19c0-.18,0-.38-.08-.58a5.05,5.05,0,0,0-.26-.59c-.7-1.64-1.42-3.26-2.08-4.92a7,7,0,0,1-.45-1.86,20.78,20.78,0,0,0-.58-3c-.55-2-1.06-4-1.6-6a5,5,0,0,0-.2-.52,3.93,3.93,0,0,1-.8-.25A2.85,2.85,0,0,1,212,3a2.44,2.44,0,0,1,2.5-1.23,1.17,1.17,0,0,0,1.15-.38A5.2,5.2,0,0,1,218.29.06,1.64,1.64,0,0,1,219,0c.59.12,1.17.28,1.75.44a1.68,1.68,0,0,1,1.1,1.1,5,5,0,0,0,1,1.5c.76.79,1.07,1.6.3,2.56a6.19,6.19,0,0,1,.44,2.85,10.53,10.53,0,0,0,.46,3.38,5.89,5.89,0,0,1,.17,1.27c.05.64.08,1.28.12,1.92,0,.11.05.22,0,.32a7,7,0,0,0,.91,3.69c.18.45.27,1,.43,1.42a9.6,9.6,0,0,0,1.1,2.42,25.15,25.15,0,0,1,4.5-.1c.49.05,1,0,1.49,0s1,.07,1.47.1,1.05.07,1.58.08l3,0a3.1,3.1,0,0,0,1.72-.49,7.93,7.93,0,0,1,1.24-.61,2.1,2.1,0,0,1,.61-.15.91.91,0,0,1,1.12.74,4.29,4.29,0,0,1-.73,3.76,2.1,2.1,0,0,1-1,.62,10.81,10.81,0,0,1-1.88.29,5.45,5.45,0,0,0-1.88.31,1.81,1.81,0,0,1-.72.17,25.65,25.65,0,0,1-3.39.1A8.17,8.17,0,0,0,228.74,29a2.91,2.91,0,0,0,.2,1.83c.42,1,.88,2,1.34,3s1,2.07,1.46,3.1a5.5,5.5,0,0,0,.32.55,6.11,6.11,0,0,0,1.6-1.47,6.84,6.84,0,0,1,1.55-1.44,5,5,0,0,0,.86-.8,16.75,16.75,0,0,1,3-2.41c.26-.16.49-.31.49-.63s.29-.64.57-.85a4.86,4.86,0,0,1,.84-.46.93.93,0,0,1,1.17.16,1.5,1.5,0,0,0,1.11.54.89.89,0,0,1,.47.24,21.26,21.26,0,0,1,1.76,1.37,3.45,3.45,0,0,1,.9,3,15.24,15.24,0,0,1-.4,2,1.7,1.7,0,0,1-.75,1,4.48,4.48,0,0,1-1.13.58,1.91,1.91,0,0,0-1.21,1.1,4.26,4.26,0,0,1-2.64,2.32,6.39,6.39,0,0,0-2.36,1.6.38.38,0,0,0-.14.17,10,10,0,0,1-1.35,2,16.24,16.24,0,0,0,2.08,2.71,32.5,32.5,0,0,0,3.18,3.14,36.46,36.46,0,0,0,3.2,2.48c1.66,1.17,3.35,2.29,5,3.4a8.14,8.14,0,0,0,1.42.7l4.33,1.75.7.26c.2.07.41.09.61.17a21.92,21.92,0,0,0,3.9,1,3.33,3.33,0,0,1,.92.26,10.2,10.2,0,0,0,3.17.85c.55.07,1.1.19,1.87.33a2.34,2.34,0,0,1-1.46,0,.81.81,0,0,0-.88.28c.94.38,2,0,2.83.35s1.79.22,2.69.59a9.17,9.17,0,0,1-2.43,2.06v1.31l-1.49,1.29a.69.69,0,0,1-.25.18,7.76,7.76,0,0,1-1.14.25c-.39,0-.61.39-1.06.42a8.61,8.61,0,0,0-3,.9l-.06.53a.5.5,0,0,1-.17.1l-2,.23a5.9,5.9,0,0,1-.84,0c-.78,0-1.55-.07-2.33-.11a1.84,1.84,0,0,0-.41,0,18.15,18.15,0,0,1-2.27.52,3.62,3.62,0,0,1-2.73-.51l-3.52-2.59a6.72,6.72,0,0,1-1.49-1.52,11.2,11.2,0,0,0-1.16-1.23c-.13-.13-.31-.19-.43-.32l-3.92-3.92c-.65-.66-1.29-1.33-2-1.94a36.47,36.47,0,0,1-5.48-6.09l-.92-1.25a6.85,6.85,0,0,0-1.33,1.3c-.3.39-.63.77-.9,1.19a11.67,11.67,0,0,1-1.44,1.7,10.39,10.39,0,0,0-1.66,2.47,12.33,12.33,0,0,1-1,1.51l-2.2,3.27A3.2,3.2,0,0,1,222,64l-.57-.52-.73.24a1.28,1.28,0,0,1-.35-.24,1.42,1.42,0,0,0-1.74-.62C217.81,63.08,217,63.17,216.18,63.33Z"/><path class="cls-2" d="M193.27,42c.21-.4.41-.76.59-1.14a1.33,1.33,0,0,0,.17-.6,3.86,3.86,0,0,1,.16-1.26,1.21,1.21,0,0,0,0-.73,12.9,12.9,0,0,0-.7-1.45,1,1,0,0,0-.86-.53,9,9,0,0,1-2.39-.84c-.38-.14-.46-.34-.73-1l.77-.11.24-.93a.7.7,0,0,1,.25-.15,13.47,13.47,0,0,0,1.56-.32c1.33-.45,2.72-.71,4-1.24a6.16,6.16,0,0,1,1.65-.36c.95-.09,1.89-.29,2.84-.43a14.09,14.09,0,0,1,1.58-.16,21.84,21.84,0,0,0,5.33-.88,5.42,5.42,0,0,1,3.31,0,1.63,1.63,0,0,1,1.1,1.86,14.81,14.81,0,0,1-.27,1.48,5.66,5.66,0,0,0-.11,2.13,1.31,1.31,0,0,1-.41,1.26,1.87,1.87,0,0,0-.75,1.46,1,1,0,0,1-.71.84c-.35.16-.69.33-1.08.53-.34-.27-.67-.16-.95.31a1.46,1.46,0,0,0-1.92-.26,2.24,2.24,0,0,1-1.13.22,1.87,1.87,0,0,1-.53,0,7.6,7.6,0,0,0-5,.95c-.57.28-1.16.53-1.72.83-.16.08-.25.27-.55.61l1.35-.33c1.52-.33,3-.7,4.57-1a25.35,25.35,0,0,1,3.37-.37c1.55-.07,3.12,0,4.67,0a12.32,12.32,0,0,1,3.36.46,3.41,3.41,0,0,1,.51.22c-.12.56-.62.8-.89,1.29l.11.7a5.79,5.79,0,0,1-2.48,1.88,10.48,10.48,0,0,1-3.09.57.76.76,0,0,0,0,.92c.07.05.12.11.18.12a4.09,4.09,0,0,0,1.87-.06,8,8,0,0,1,3,0,5.73,5.73,0,0,1,2,.74,2.88,2.88,0,0,1,.44.4,8.19,8.19,0,0,1-2.08.79L214,49l-1.31.8-.24.79c-1.4.77-3,.67-4.5.92-.11.73-.09.77.39.94a15.23,15.23,0,0,0,5.83.87,2.15,2.15,0,0,1,2.12.81c0,.17,0,.44-.11.57-.4.44-.42,1.12-.95,1.49a.87.87,0,0,0-.28.45,9,9,0,0,1-1.3,1.93,1.66,1.66,0,0,1-1.39.65,4.47,4.47,0,0,1-2-.09,2.22,2.22,0,0,0-.73-.09l-4.46-.16a9.14,9.14,0,0,0-3.25.4,1.68,1.68,0,0,1-.52.14c-1.66,0-3.15.77-4.75,1a1.73,1.73,0,0,0-.51.12,1.77,1.77,0,0,1-1.38.35c-.56.39-1.18.13-1.77.19h-.31a1,1,0,0,1-1-1.08c0-.25,0-.5,0-.74a1.27,1.27,0,0,0-.12-.39l.73-1.41c.12,0,.3-.16.5-.23a50.64,50.64,0,0,0,5-2.1,13.51,13.51,0,0,1,2.68-1,7,7,0,0,0,1.11-.47,3.27,3.27,0,0,0-.2-1.71,3.48,3.48,0,0,0-.73.06c-1.06.3-2.11.63-3.16.95a1,1,0,0,0-.39.15,16.05,16.05,0,0,1-3.14,1.32l-1.47-.37-1.1-1a4.58,4.58,0,0,1,1-2.27c.82.13,1.27-.75,2.16-.87a1.4,1.4,0,0,0,1.59-.2,7,7,0,0,1,1.47-.59c1-.36,2-.83,3-1.26a2.45,2.45,0,0,0-.34-1.57,9.34,9.34,0,0,0-2.38.6,1,1,0,0,0-.51.36c-.37.58-1,.78-1.53,1.13a1.61,1.61,0,0,1-1.34.08c-.82-.22-1.63-.49-2.44-.73a2,2,0,0,1-1.38-1.84c0-.08.08-.18.12-.27.58.31.58.31,1.07.22,0-.44-.59-.38-.63-.77A5.74,5.74,0,0,1,193.16,44a1.34,1.34,0,0,0,.36-.22.73.73,0,0,0,.2-1.18C193.58,42.39,193.42,42.2,193.27,42Zm12.67-8.7c-.22.07-.38.12-.55.19a15.8,15.8,0,0,1-4.93,1.18,1.4,1.4,0,0,0-1.09.49c0,.35,0,.74,0,1.12s-.12.76-.2,1.21a24.54,24.54,0,0,0,2.4-.72c.83-.19,1.66-.39,2.5-.52s1.59-.15,2.49-.23A6.89,6.89,0,0,0,205.94,33.31Z"/><path class="cls-2" d="M240.59,17.79a2.37,2.37,0,0,1-2.42,1,4.37,4.37,0,0,0-2.16.46l-1.18.5c-.38-.46-.71-.87-1.07-1.26a8.18,8.18,0,0,0-1-1,1.35,1.35,0,0,1-.53-1c-.06-.57-.16-1.13-.24-1.67a.78.78,0,0,0-.13-.19c-.35-.29-.71-.57-1.07-.85-.66.13-1.32.23-2,.38a4.33,4.33,0,0,0-.72.3L226.56,13a3.73,3.73,0,0,1,.71-2.1s0-.07.06-.08c.87-.37,1.07-1.36,1.78-1.89a7.19,7.19,0,0,0,.81-.84c.17-.17.34-.36.53-.52a2.32,2.32,0,0,1,.43-.24c.31.15.58.4.85.4a2.32,2.32,0,0,0,1-.33,2.12,2.12,0,0,1,2.47.15,2.53,2.53,0,0,0,.86.41,7.74,7.74,0,0,1,4.16,2.39,11.48,11.48,0,0,0,1,.91,1.77,1.77,0,0,1,.49,2.11,22.09,22.09,0,0,0-.69,2.57C240.9,16.54,240.76,17.13,240.59,17.79Z"/></svg>