<svg id="圖層_1" data-name="圖層 1" xmlns="http://www.w3.org/2000/svg" viewBox="0 0 350 65"><defs><style>.cls-1{fill:#960014;}</style></defs><title>2020-12-17-出圖元件</title><path class="cls-1" d="M55.42,35.81l.47.7-.68,1.06c.2.32.64.06.88.37l.28.87a1.56,1.56,0,0,1-.65,1c-.13.11-.33.23-.36.37-.13.51-.48.55-.9.44l-.21.65c-.64.09-1.32,0-1.82.38-.09,0-.13,0-.15,0a3.33,3.33,0,0,0-2.38-.34,9.33,9.33,0,0,1-1.67,0,10,10,0,0,0-3.25.33,1.56,1.56,0,0,0,0,1.51,1.13,1.13,0,0,1,.08.6,12.55,12.55,0,0,0,0,3.62c0,.29.11.59.13.88s0,.42-.1.5c-.42.36-.31.8-.27,1.24a3,3,0,0,0,.09.4,10.89,10.89,0,0,0,2.36-.29.72.72,0,0,0,.54-.63,16.92,16.92,0,0,0,.08-3,1.26,1.26,0,0,0-.28-.64c-.23-.34-.51-.65-.75-1a2.28,2.28,0,0,1-.59-1.41c.09-.07.24-.13.31-.24a1.67,1.67,0,0,1,1.6-.74c.32,0,.65,0,1,0a1.5,1.5,0,0,1,.91.27,3.17,3.17,0,0,0,1.56.54,13.54,13.54,0,0,1,1.75.35,7.2,7.2,0,0,1,.12,2.27,7.93,7.93,0,0,0-.08,1,5.36,5.36,0,0,1-.66,2.89,2.24,2.24,0,0,0,.5.14l3.18.13.35,0A4.12,4.12,0,0,1,60,52.57a.79.79,0,0,1,.09.59,2.46,2.46,0,0,0,0,1.32,3.36,3.36,0,0,0-.73,1.46,2.14,2.14,0,0,1-1.3,1.49,2.29,2.29,0,0,0-1.15.92l-.81.18c-.47-.32-1-.63-1.45-1a1.16,1.16,0,0,0-.81-.24c-.5,0-1,0-1.5,0-.76,0-1.53,0-2.29-.07A23.63,23.63,0,0,1,47.69,57a21.07,21.07,0,0,0-4-.13.47.47,0,0,0-.17,0c-1.3.25-2.61.48-3.9.77s-2.79.71-4.2,1c-1,.23-2,.41-3,.59a27.51,27.51,0,0,0-4,1.17c-.45.15-.88.32-1.37.49l.08.56c-.13.1-.28.23-.45.35a1.09,1.09,0,0,1-1.58,0,5.16,5.16,0,0,0-1.75-1,1.58,1.58,0,0,1-.77-.56,2.37,2.37,0,0,0-.51-.49,1.67,1.67,0,0,1-.7-1.19A2.61,2.61,0,0,0,21,57.38a.72.72,0,0,1-.05-.79l.52-.14-.1-.78c.07-.07.13-.21.23-.23a4.22,4.22,0,0,1,2-.35,2,2,0,0,0,.86-.09c1.23-.34,2.44-.7,3.66-1.06l2.81-.78.44-.15a5,5,0,0,0,0-.53c0-.42-.08-.83-.09-1.25a2.26,2.26,0,0,0-1.17-2.12.91.91,0,0,1-.4-1.17A17.73,17.73,0,0,1,31,46.55c.46-.4,1.06-.64,1.37-1.17a1.47,1.47,0,0,1,1.69.48,7.2,7.2,0,0,1,1.07,1.27,6.91,6.91,0,0,0,.73.89.75.75,0,0,1,.22.88,1.19,1.19,0,0,0,0,.87,1.89,1.89,0,0,1-.3,1.69c-.11.16-.2.34-.3.51a1.2,1.2,0,0,0,1,.07l3.18-.74a.78.78,0,0,0,.2-.13l-.35-.68a.33.33,0,0,1,0-.15,1.89,1.89,0,0,0,0-1.22,9,9,0,0,1-.27-2.37,9.39,9.39,0,0,0-.34-2.1,3.06,3.06,0,0,1-.14-1.12,1.51,1.51,0,0,0-.18-1.08,1.75,1.75,0,0,0-.56-.06c-.72.14-1.44.32-2.15.5a6.59,6.59,0,0,1-.75.25,10.76,10.76,0,0,0-3.86,1.69,4.38,4.38,0,0,0-.39.36,3,3,0,0,1-.7.54,1.87,1.87,0,0,0-.93.72,1.42,1.42,0,0,1-1.33-1.37c-.07-.53-.21-1-.28-1.57,0-.23.13-.54,0-.69-.37-.54-.15-1.1-.08-1.63.09-.73.28-1.46.43-2.19a17.33,17.33,0,0,0,1.37-1.34,1.24,1.24,0,0,1,1.33-.48c.06-.29.12-.58.17-.86.08-.47.17-.94.22-1.41a4.9,4.9,0,0,0-.34-2.27,3.27,3.27,0,0,1-.26-1.2,2.54,2.54,0,0,0-.63-1.61.56.56,0,0,0-.19.05c-.74.54-1.44,1.14-2.21,1.63-1.28.81-2.38,1.83-3.56,2.75a7.59,7.59,0,0,0-.75.75,5.2,5.2,0,0,1-1.24,1c-1.09.64-2.14,1.35-3.23,2a8.24,8.24,0,0,1-1.27.61,14.1,14.1,0,0,1-3.06.81l-1.29.1-.73-.45a3.07,3.07,0,0,0-.37.13,1.18,1.18,0,0,1-1.38-.15,3.38,3.38,0,0,0-2.13-.74c-.48,0-.81-.32-1.16-.59l-1.2-.9a2.42,2.42,0,0,0-.55-.29,4.6,4.6,0,0,1-1.35-.83,2.91,2.91,0,0,0-.81-.53A9,9,0,0,1,1.55,34C1.06,33.66.55,33.32,0,33a.52.52,0,0,1,.21-.61c.27-.2.22-.46.17-.75a11.46,11.46,0,0,1,2.74-1.18,22,22,0,0,0,4.43-1.76A19.51,19.51,0,0,1,12,27.07a55.44,55.44,0,0,0,6.85-2.37c1.42-.58,2.76-1.34,4.14-2a24.84,24.84,0,0,0,4.72-3c1-.83,2-1.75,3-2.63.53-.47,1-1,1.55-1.43a2,2,0,0,0,.24-.26q1-1.23,2-2.46a2.89,2.89,0,0,0,.35-.51,11.39,11.39,0,0,1,2.39-3.07c.74-.72,1.57-1.34,2.34-2a7.69,7.69,0,0,0,1.85-1.88,5,5,0,0,1,1-1.06A1.55,1.55,0,0,0,44,4.17a2.37,2.37,0,0,1,.63-.24l1.53,3.63s0,.07.1.08c1.21.26,2.13,1.13,3.27,1.54a1.59,1.59,0,0,1,.64.45,3.74,3.74,0,0,0,1.16.81c.71.35,1.42.72,2.14,1.05a2.78,2.78,0,0,0,.93.24,2.15,2.15,0,0,1,1.08.34c.4.23.85.4,1.27.6a1.05,1.05,0,0,1,.32.15,6.56,6.56,0,0,0,1.79,1.12,3.66,3.66,0,0,1,1.93,2.71A7.68,7.68,0,0,1,61,19.39a4.56,4.56,0,0,1-1.15,2.71c-.3.31-.57.65-.91.94a1.92,1.92,0,0,0-.62.85,3,3,0,0,1-.44.67,1.71,1.71,0,0,1-1.17-.74A9.11,9.11,0,0,1,55.33,22c0-.13-.21-.21-.32-.3a22.08,22.08,0,0,0-1.91-1.43,6.58,6.58,0,0,1-1.14-1c-.91-.93-1.79-1.89-2.7-2.83-.26-.27-.57-.51-.86-.76A5.92,5.92,0,0,1,47,14.07c-.14-.26-.37-.47-.49-.74a1.52,1.52,0,0,0-1.47-.91l-1.52,1.1a6,6,0,0,1-.34.61,1.15,1.15,0,0,1-1,.64,1.19,1.19,0,0,0-1.07.65c-.56.8-1.13,1.59-1.71,2.38a8.22,8.22,0,0,1-.84,1,11.48,11.48,0,0,0-1.34,2,3.11,3.11,0,0,0-.15.5c.29,0,.51,0,.73,0A46.09,46.09,0,0,1,44.25,21a7.86,7.86,0,0,1,1,0c1.7.24,3.41.06,5.12.14.7,0,1.4.13,2.1.23a1.66,1.66,0,0,1,.65.25c.14.09.32.26.33.4a5.84,5.84,0,0,0,.47,1.39c-.54.8-.54.8-.39,1.59l-.48.41,0,.56-.77.73-1.17,0a4.29,4.29,0,0,0-.88,0,2.76,2.76,0,0,1-1.48-.09c-.39-.12-.79-.24-1.18-.38a3.79,3.79,0,0,0-2.92,0,3.33,3.33,0,0,1-1.47.25,8.66,8.66,0,0,0-2.54.22,11.36,11.36,0,0,1-2.73.15c-.56,0-1.12,0-1.68,0a2.84,2.84,0,0,0-1.45.46c.29.71,0,1.54.52,2.23l.61-.07A27.75,27.75,0,0,1,40.47,29a16.73,16.73,0,0,0,2.1-.26,45.54,45.54,0,0,1,6.17-.39,9,9,0,0,0,1.74-.26,5.17,5.17,0,0,1,2.25.22c.6.15,1.19.33,1.79.46a2.68,2.68,0,0,1,1.34.59c0,.08,0,.16,0,.18a4.83,4.83,0,0,0-1.27,1.43,2.41,2.41,0,0,1-.84.75,1.86,1.86,0,0,0-.44.29,2.56,2.56,0,0,1-2.07.56,9.19,9.19,0,0,0-1.66.08c-1.88.19-3.76.37-5.63.52a38.55,38.55,0,0,0-4.91.63,6.75,6.75,0,0,0-2,.43c-.26.13-.64,0-1,.07-.61.06-.77.21-.8.83a2.86,2.86,0,0,1-.41,1.43,2.74,2.74,0,0,0-.18.48,2.69,2.69,0,0,0,.63,0c2-.34,4-.52,6-1a19.17,19.17,0,0,1,2.28-.27,36.49,36.49,0,0,1,5.11-.37c1.11,0,2.23.16,3.35.24a7.39,7.39,0,0,0,1.05,0,2.1,2.1,0,0,1,1.28.11A2.92,2.92,0,0,0,55.42,35.81Z"/><path class="cls-1" d="M106.14,62.11l-.66-.37L104,63.43l-.25-.12c-.6-.29-1.28-.49-1.53-1.23-.74-.35-.84-1.08-1-1.76,0-.11,0-.26-.13-.31-.53-.38-.46-.93-.44-1.46a13.49,13.49,0,0,1,.15-1.41c0-.15.08-.32,0-.44a2.21,2.21,0,0,1,.07-1.3,7.61,7.61,0,0,0,0-2.13c0-.59-.07-1.18-.08-1.77a15.05,15.05,0,0,0-.23-2.22c-.19-1-.28-2.11-.41-3.17a19.25,19.25,0,0,1-.06-2.94,5.4,5.4,0,0,0-.07-.8c0-.25-.12-.51-.18-.77-.23.17-.08.41-.1.61s0,.47,0,.71-.06.53-.09.79,0,.48-.08.71,0,.48-.07.71-.1.46-.17.73a1.88,1.88,0,0,0-.57-.12,2.22,2.22,0,0,0-.56.27l-1.25.67c-.3.67-.48,1.43-1.28,1.74-.21-.05-.43-.13-.66-.17a1,1,0,0,1-.84-.81,4.88,4.88,0,0,0-.86-1.83,3.85,3.85,0,0,1-.57-1.19,1.16,1.16,0,0,1,.24-1.15l-.25-.59a6.88,6.88,0,0,0-3.37.09,5.65,5.65,0,0,1-2.24.42,2.26,2.26,0,0,0-1.09.3,9.94,9.94,0,0,1-2.25.76,2.3,2.3,0,0,0-.6.15c-1.41.79-3,1.17-4.35,2.13-.15.1-.37.21-.39.34-.05.4-.35.54-.64.65a2.1,2.1,0,0,0-1.29,1.25.78.78,0,0,1-.57.53,1.89,1.89,0,0,1-1.52-1.43c-.1-.31-.18-.63-.3-.92a3.61,3.61,0,0,0-.5-.93,1.2,1.2,0,0,1-.24-1.39,2.22,2.22,0,0,0,0-1.82,3.75,3.75,0,0,1-.12-.6c-.1-.65.08-1.3,0-1.94a.87.87,0,0,1,.34-.79A4.72,4.72,0,0,0,74.69,37a10.4,10.4,0,0,1,1-2.76,2.22,2.22,0,0,0,.23-.67,1.05,1.05,0,0,0-.42-1.25A4.4,4.4,0,0,1,75,32a7.23,7.23,0,0,1-3.48-.39,1.05,1.05,0,0,0,0,.85c.21,1.23.45,2.45.62,3.68A16.68,16.68,0,0,1,72.15,38c0,1.4.1,2.79.07,4.19a19.59,19.59,0,0,1-.21,3.9c-.09.46-.08,1-.17,1.41s-.28,1-.39,1.55c-.15.69-.26,1.39-.42,2.08a4.42,4.42,0,0,1-.4,1.26,8.86,8.86,0,0,0-1.13,3.81A7.42,7.42,0,0,1,69,58a1.88,1.88,0,0,1-.29.54,12.22,12.22,0,0,0-1,1.56c-.06.12-.2.2-.34.32a7.39,7.39,0,0,1-2.07-2l-.66.28s-.1-.07-.1-.11a.74.74,0,0,0-.38-.66,3,3,0,0,1-1-1.4,8.38,8.38,0,0,1-.63-2.48,3.84,3.84,0,0,1,.42-2.75A4.43,4.43,0,0,0,63.43,50,5.27,5.27,0,0,1,64,48.61a11.65,11.65,0,0,0,1.74-5.18c.11-1.12.13-2.25.2-3.38s.16-2.25.21-3.38c0-.83,0-1.66,0-2.49,0-1.22-.08-2.44-.22-3.65-.2-1.74-.49-3.47-.73-5.21-.16-1.14-.29-2.29-.43-3.44,0-.36,0-.72-.1-1.07a2.27,2.27,0,0,0-.54-1.19A15.83,15.83,0,0,0,63,18.08a1,1,0,0,1-.19-.39c-.24-.67-.14-.87.49-1.18a5.38,5.38,0,0,0,1-.66,1,1,0,0,1,1.07-.17,5.19,5.19,0,0,1,1.82,1.05,5.8,5.8,0,0,0,1.12.85,4.52,4.52,0,0,1,.89.86c.21.24.35.55.56.79a4.43,4.43,0,0,1,.81,1.57,1.69,1.69,0,0,1-.07,1.38,4,4,0,0,0-.26,2.44c.08.82.24,1.64.38,2.46a.85.85,0,0,0,.12.26l1.21.3a2.66,2.66,0,0,1,1.24-.6,1.7,1.7,0,0,0,.55-.24,8,8,0,0,1,2.78-1.65A1.78,1.78,0,0,0,76.28,24l-.53-.83a.83.83,0,0,1-.14-.58,3.3,3.3,0,0,0-.07-.69A1.07,1.07,0,0,0,75,21a3.32,3.32,0,0,1-.42-.32.78.78,0,0,1-.2-.38,3.1,3.1,0,0,1,.2-1.57.94.94,0,0,1,.9-.61l1.24,0a1.11,1.11,0,0,1,.87.36,1.73,1.73,0,0,0,1.93.48,1.41,1.41,0,0,1,1.52.42,3.52,3.52,0,0,1,1,3.33c0,.2-.09.4-.14.67a2.29,2.29,0,0,0,.62,0,27.82,27.82,0,0,0,3-.71,1.83,1.83,0,0,1,1.84.07c.38-.44.17-.81.07-1.16A7.06,7.06,0,0,0,87,20.57a2.13,2.13,0,0,1,.32-1.47,1.07,1.07,0,0,0-.1-1.18l-.69-1.15-.8-.17a9.32,9.32,0,0,1,.66-1.3.92.92,0,0,1,1.15-.42.8.8,0,0,0,.42.09,2,2,0,0,1,1.77.61,3.39,3.39,0,0,0,1.59.7,1.27,1.27,0,0,1,.76.41,3.41,3.41,0,0,0,.37.39,1.78,1.78,0,0,1,.41,2.33c-.11.27-.27.52-.43.82a3.06,3.06,0,0,1-.32,2.17,8.4,8.4,0,0,1,3.68.65,4.38,4.38,0,0,1,1.54.8c0,.46.48,1-.2,1.48l.24.55a2.22,2.22,0,0,1-.72,1.21,3.07,3.07,0,0,0-.57.79c-.06.1,0,.27,0,.42a9.47,9.47,0,0,1-2.71.15c-.71,0-1.41-.12-2.11-.21a6,6,0,0,0-1.93,0c-.38.07-.77.08-1.15.13a4.25,4.25,0,0,0-.46.14,2.91,2.91,0,0,0,1.86,1,12.33,12.33,0,0,1-.17,3.58,18.61,18.61,0,0,0-.4,2.37,3.23,3.23,0,0,0,.06.61,1.36,1.36,0,0,1,0,.44,6.82,6.82,0,0,0,0,1.86,1.09,1.09,0,0,0-.57,1,6.1,6.1,0,0,0,3-.21,2.22,2.22,0,0,0,.18-.55,7.45,7.45,0,0,0,.07-1.06,2,2,0,0,0-.09-.69,5.15,5.15,0,0,1-.23-2.2,2.22,2.22,0,0,0-.33-1.78,2.4,2.4,0,0,1,.4-.14c.29,0,.61,0,.78-.3a.08.08,0,0,1,.07,0A12.29,12.29,0,0,1,94.25,32a2.25,2.25,0,0,1,1.46.76c.29.3.58.59.89.86a7.67,7.67,0,0,1,1.73,2.12,9.28,9.28,0,0,1,.55,1.69c.18.56.34,1.12.53,1.73.25-.15.16-.35.16-.49a8.7,8.7,0,0,0,0-.89,39.69,39.69,0,0,1-.13-4.36,7.59,7.59,0,0,0-.06-1.07,7.73,7.73,0,0,1,0-2.4,6.58,6.58,0,0,0-.09-2.38,11.85,11.85,0,0,1-.1-5.3,2.81,2.81,0,0,0,0-1.32A3.7,3.7,0,0,1,99,20.1a2.86,2.86,0,0,0-.24-1.65c-.18-.29,0-.63.17-.95a10.61,10.61,0,0,1-.44-1.05,7.32,7.32,0,0,1-.34-1.38c0-.2.15-.42.26-.72l-.28-2,.24-.61c-.12-.09-.2-.18-.26-.18a11.39,11.39,0,0,0-1.66.1,5.74,5.74,0,0,1-1.85,0,11.22,11.22,0,0,0-3.17,0c-.32.05-.65,0-1,.07s-.94.08-1.4.14c-1.08.15-2.15.35-3.24.45a4.77,4.77,0,0,0-1.86.5,5.09,5.09,0,0,1-2,.48c-1.29.11-2.58.22-3.86.42a11.23,11.23,0,0,0-1.83.61c-.43.15-.59.55-.8.89a3.36,3.36,0,0,1-1.94-.06l-.92-.32A3.93,3.93,0,0,0,71,14.58a2.86,2.86,0,0,1-2.75-1.06,1,1,0,0,0-.28-.18.49.49,0,0,1,0-.1c0-.08.07-.16.12-.27l-.39-.49a1,1,0,0,1,0-.22,5.4,5.4,0,0,0,.25-.67,1.8,1.8,0,0,1,.89-1.15,9.21,9.21,0,0,1,2.38-1.16A3,3,0,0,0,71.78,9,4.73,4.73,0,0,1,74,8.28a2.3,2.3,0,0,0,.69-.1,10.43,10.43,0,0,1,2.36-.35c.5,0,1-.11,1.49-.15s1,0,1.5-.1c.73-.09,1.46-.18,2.18-.33a8.92,8.92,0,0,1,1.93-.14c.53,0,1.06,0,1.59,0a25.23,25.23,0,0,1,4.76,0,6.21,6.21,0,0,0,1.14,0,8.82,8.82,0,0,1,2.9.09,2.92,2.92,0,0,1,.82.32,3.12,3.12,0,0,0,2.06.29.8.8,0,0,0,.22-.12V6.3l.42-.24a2.82,2.82,0,0,0,1.19-1.27,2.69,2.69,0,0,1,.38-.59,1.41,1.41,0,0,0,.42-1.13,9.15,9.15,0,0,0,1.92,1,1,1,0,0,1,.66.66,1.84,1.84,0,0,0,.54.89c.28.3.47.67.73,1a18.1,18.1,0,0,0,1.29,1.58,2.49,2.49,0,0,1,.66,1.7,1.72,1.72,0,0,0,.21.84,1,1,0,0,1,0,.86c-.22.61-.44,1.22-.63,1.84a1.56,1.56,0,0,0,0,.61,2.2,2.2,0,0,1-.28,1.62,1.68,1.68,0,0,0-.18,1.53,8.05,8.05,0,0,1,.33,2.45,11.7,11.7,0,0,0,.33,2c.08.5.18,1,.26,1.49a4.52,4.52,0,0,1-.22,2.28,2.76,2.76,0,0,0,0,1.66c.17.69.36,1.38.49,2.08a3.7,3.7,0,0,1,0,1.24,6.52,6.52,0,0,0,.18,2.64,10.28,10.28,0,0,1,.22,2.47,10.07,10.07,0,0,0,.32,2.19c.12.52.22,1.05.31,1.57.15.94.26,1.89.45,2.81a13.58,13.58,0,0,1,.25,2.84,8.42,8.42,0,0,0,.14,2.74c0,1.72.34,3.43.26,5.15a3.46,3.46,0,0,0,0,.72,2.39,2.39,0,0,1-.35,1.78,2.47,2.47,0,0,0-.4,1.87,1.47,1.47,0,0,1-.29,1.27,3.25,3.25,0,0,0-.7,1.68,2.93,2.93,0,0,1-.35,1.18A2.75,2.75,0,0,0,106.14,62.11ZM83.2,39.89c0-.24-.06-.43-.1-.62s-.12-.4-.14-.6c-.08-.88-.11-1.77-.23-2.64-.19-1.47-.44-2.93-.66-4.39a1.23,1.23,0,0,0-.11-.23l-.73-.33c-.06-.19-.11-.36-.17-.53-.15-.45-.25-.54-.68-.48a7.63,7.63,0,0,0-2,.52c-.2.1-.44.16-.54.43a3,3,0,0,0,1.67,1.19,1.63,1.63,0,0,1,.05.36A1.56,1.56,0,0,0,80.14,34a12.1,12.1,0,0,1,.94,1c0,.55-.06,1-.11,1.43a1.28,1.28,0,0,1-.17.67,1.31,1.31,0,0,0-.25,1,6.09,6.09,0,0,1-.15,1.41c0,.2-.08.39-.14.64a2.6,2.6,0,0,0,.64.08A19.59,19.59,0,0,0,83.2,39.89ZM70.9,29l.23,1a.76.76,0,0,0,.48-.77Z"/><path class="cls-1" d="M284.49,8.72l1-.48a1.59,1.59,0,0,0,1.24-.13,1.8,1.8,0,0,1,.9-.1,7.19,7.19,0,0,1,2.89.56,4.71,4.71,0,0,1,1.07.5,3.39,3.39,0,0,0,1.11.46A2.51,2.51,0,0,1,294.31,11a1,1,0,0,1,.14.44,3.16,3.16,0,0,0,.93,1.83,11.6,11.6,0,0,1,.81,1,.65.65,0,0,1-.07.88c-.56.45-.77,1.16-1.27,1.7.06.26.12.54.2.81a1.63,1.63,0,0,1-.52,1.81c-.7.63-1.41,1.25-2.13,1.85a1.66,1.66,0,0,0-.62.81,12.8,12.8,0,0,1-1.2,3,2.6,2.6,0,0,0-.15.51L291,26c.89.52,1.79,1,2.66,1.58a7.74,7.74,0,0,1,1.91,1.66,9.93,9.93,0,0,0,2.09,1.9,2.05,2.05,0,0,1,.42.36,4.33,4.33,0,0,0,1.29.93l1.8,1a6.21,6.21,0,0,0,.59.26c.08-.25.08-.55.23-.68a1.42,1.42,0,0,0,.52-1,6.77,6.77,0,0,1,.87-.18,13.31,13.31,0,0,0,3-.54,1.74,1.74,0,0,1,.64-.08,1.12,1.12,0,0,1,1.05,1c0,1.5-.28,1.93-1.41,2.52-.42.22-.83.4-1,1,1.2.95,2.72,1.32,3.91,2.21.64,0,1-.42,1.44-.7.18-.12.26-.42.35-.65a1,1,0,0,1,.77-.75c.75-.15,1.44-.48,2.19-.66a2.41,2.41,0,0,1,1.76.16,4.27,4.27,0,0,1-.2,4.75,1.33,1.33,0,0,0-1.2.77,2,2,0,0,0,.41.3c1.53.6,3.08,1.18,4.61,1.79.66.27,1.32.56,2,.88a9.89,9.89,0,0,0,3.76,1,11.34,11.34,0,0,1,3.44.75,17.62,17.62,0,0,0,2.16.58,11.44,11.44,0,0,1,1.49.52c.68.28,1.42.42,2.13.64.42.13.82.3,1.23.44a6.78,6.78,0,0,0,1.07.29,26.15,26.15,0,0,1,5.16,1.21,3.7,3.7,0,0,1,.52.2A20.65,20.65,0,0,0,346.52,51,5,5,0,0,1,349,52.12c.27.28.78.24,1,.65a1.56,1.56,0,0,1-.83,1.57,11.73,11.73,0,0,0-.95.74,2.68,2.68,0,0,1-1.43.57c-.19,0-.39.18-.58.28-.58.31-1.15.63-1.74.9a5.52,5.52,0,0,1-1.81.33,6.81,6.81,0,0,0-4.32,1.66,1,1,0,0,1-.47.22c-1,.2-2,.36-3,.58a16.21,16.21,0,0,0-2.06.6,4.31,4.31,0,0,1-1.92.11,9.56,9.56,0,0,1-1-.21l0-.29a2.27,2.27,0,0,0-1.4-.25,6.86,6.86,0,0,1-1.57,0c-1.08-.08-2.17-.12-3.27-.17l-.42.74c-.07,0-.14,0-.19,0a2.3,2.3,0,0,1-.5-.24c-.6-.39-1.18-.81-1.78-1.21a2.66,2.66,0,0,0-.73-.42c-1.45-.45-2.58-1.5-3.92-2.17a2.1,2.1,0,0,1-.28-.25c-1.18-.93-2.32-1.92-3.55-2.76-.93-.64-1.88-1.24-2.78-1.92-1.83-1.38-3.72-2.67-5.47-4.14-1.34-1.13-2.76-2.15-4-3.39-.6-.59-1.31-1.07-1.95-1.63-.91-.8-1.87-1.56-2.72-2.46-.47-.5-1-.92-1.51-1.41-.84-.85-1.68-1.7-2.47-2.6a6.55,6.55,0,0,0-1.83-1.46,3.28,3.28,0,0,0-1.14-.35,3,3,0,0,1-1.14-.38c-.6-.33-1.21-.62-1.81-.93a1.51,1.51,0,0,0-.35.23c-.52.55-1,1.11-1.53,1.67a3,3,0,0,1-1,.87c-.18.08-.3.31-.44.48-.32.39-.61.81-.94,1.19a6,6,0,0,1-1.46,1.29,7.93,7.93,0,0,0-2.49,2.27c-.26.36-.58.66-.87,1a4.73,4.73,0,0,0-1.08,1.42c-.09.22-.33.38-.5.57-.38.42-.78.82-1.13,1.26a13.48,13.48,0,0,1-1.52,1.68c-.64.59-1.2,1.28-1.81,1.92a10.82,10.82,0,0,1-2.24,2.14c-.46.26-.87.6-1.31.89a28.31,28.31,0,0,0-2.39,2,3.61,3.61,0,0,1-.74.56c-1.23.53-2.31,1.36-3.53,1.92a5.29,5.29,0,0,1-3.16.45,8.82,8.82,0,0,1-1.38-.2,3.78,3.78,0,0,0-2.42-.13,2.15,2.15,0,0,1-1.75-.47c-.36-.24-.67-.56-1-.81l.08-.59c-.1-.06-.15-.11-.2-.11a3.35,3.35,0,0,1-.64,0,6.44,6.44,0,0,0-.7-.24,2.7,2.7,0,0,0-.74.12l0-.78c0-.08-.06-.15-.11-.18-.7-.46-1.31-1-2-1.53a2.42,2.42,0,0,0-1-.42,1.54,1.54,0,0,1-1-.4c0-.38.24-.48.45-.58a4.51,4.51,0,0,0,1-.69,2,2,0,0,1,1.24-.59,2,2,0,0,0,.76-.33,6.62,6.62,0,0,0,1-.56,2.18,2.18,0,0,1,1.75-.45,1.74,1.74,0,0,0,.64-.09,14,14,0,0,0,3.07-1.08,10.6,10.6,0,0,1,1.84-.66,13.24,13.24,0,0,0,2.76-1.13,34.51,34.51,0,0,0,5.84-4.07,43.25,43.25,0,0,0,4.07-3.94,8.39,8.39,0,0,1,.75-.71,41.72,41.72,0,0,0,6.17-6.76c1.26-1.75,2.61-3.42,3.91-5.13a6.6,6.6,0,0,0,.46-.82,4.69,4.69,0,0,1,.57-1.09,13,13,0,0,0,1.92-2.93c.46-.87,1-1.69,1.46-2.55.32-.59.61-1.19.9-1.79s.47-1,.73-1.45a2,2,0,0,0,.19-1.3c0-.22-.1-.43-.15-.65a1.72,1.72,0,0,0-.57-1.06A1.11,1.11,0,0,1,284.49,8.72Z"/><path class="cls-1" d="M180,14.17a10.71,10.71,0,0,0,1.38.12c.89,0,1.78.07,2.66.14a2,2,0,0,0,.74,0,4.39,4.39,0,0,1,1.84,0,1,1,0,0,1,1,1.25,14.33,14.33,0,0,0-.24,1.83c-.42,2.21-.47,2.09-2.42,2.63a2,2,0,0,1-.74.05c-.86-.05-1.72-.13-2.59-.18-.33,0-.67,0-1,0-.4.53-.14,1.07-.26,1.62a6.22,6.22,0,0,0,2.49.21,2.18,2.18,0,0,1,1.29,0,.91.91,0,0,1,.68,1.07,4,4,0,0,0-.07.46,2.4,2.4,0,0,1-1.49,2.28,7,7,0,0,1-1.16.59,2.64,2.64,0,0,1-1,.19,16.29,16.29,0,0,1-1.85-.16,2.93,2.93,0,0,0-1.28.15,12.14,12.14,0,0,1-3.92.63,6.38,6.38,0,0,0-2.51.6,2.61,2.61,0,0,0-.64.5c-.25-.09-.54-.18-.82-.3a10.26,10.26,0,0,0-1-.49,1.11,1.11,0,0,1-.83-1.11c0-.16,0-.31,0-.5l.69-.55c0-.87.67-1.28,1.4-1.63a14.82,14.82,0,0,1,3.32-.89l.45-.1a1.77,1.77,0,0,0,0-1.12,1,1,0,0,0-.91-.1,13.18,13.18,0,0,0-1.84.6,1.51,1.51,0,0,1-1.26.05,5.44,5.44,0,0,1-1-.54,1.52,1.52,0,0,0-1.32-.29c-1.07.26-1.57-.5-2.13-1.15a2.52,2.52,0,0,1-.31-.72,4.78,4.78,0,0,0,.8-1.87c-.37.1-.72.18-1.06.29a2.77,2.77,0,0,1-2-.14l-4.9-2c-.63-.26-1.25-.56-1.9-.76a8.4,8.4,0,0,0-1.73-.33c-.7-.05-1.42,0-2.24,0a4.05,4.05,0,0,0-1,1.22A27,27,0,0,1,149,19c-.93,1.26-1.9,2.48-2.84,3.71-.13.17-.22.35-.42.66a14.18,14.18,0,0,0,1.64-.46,5.69,5.69,0,0,1,1.89-.46,35.17,35.17,0,0,0,3.94-.65,3.07,3.07,0,0,1,.74-.1,20.6,20.6,0,0,0,3.14-.29,8.55,8.55,0,0,1,4.4.37c.63.26,1.22.6,1.88.8a1.12,1.12,0,0,1,.75.88c.14.64.3,1.28.42,1.92a.84.84,0,0,1-.53,1,1.29,1.29,0,0,1-1,.15.5.5,0,0,0-.67.16.9.9,0,0,1-.68.42l-.7.21a1.9,1.9,0,0,1-1,.15.53.53,0,0,0-.43.08,1.06,1.06,0,0,1-1.21.11,2.56,2.56,0,0,0-.62-.07,1.61,1.61,0,0,0-.26,1.2,3.22,3.22,0,0,1-.07,1.48,2.11,2.11,0,0,0,0,.59c.23,0,.44,0,.56,0a1,1,0,0,1,.88-.05,6.59,6.59,0,0,0,2.75.31,8.43,8.43,0,0,1,3.28,0l.13.82c-.3.22-.09.51-.12.77a.9.9,0,0,1-.17.32c-.22.37-.44.74-.69,1.14l.78,1.21a4.09,4.09,0,0,1-1.76.72l-3.6.47c-.49.06-1,.14-1.47.23a2.87,2.87,0,0,0-.7.23.83.83,0,0,0-.56.88,3.81,3.81,0,0,1-.26,1.46,8.3,8.3,0,0,0-.35,1.84,18.06,18.06,0,0,0-.16,3.45,19.36,19.36,0,0,1,0,2.41,5.93,5.93,0,0,0,3.05,0c-.07-.39-.14-.79-.2-1.18-.19-1.2-.37-2.41-.56-3.61a2.83,2.83,0,0,0-.6-1.36,1,1,0,0,1,.17-1.61c.09-.08.2-.15.31-.24l1.31.49a4.92,4.92,0,0,1,2.53-.21,2.77,2.77,0,0,1,.89.22,3.38,3.38,0,0,0,.71.19,14.87,14.87,0,0,1,1.59.54,1.13,1.13,0,0,1,.55,1.71,3.17,3.17,0,0,1-.36.65,1.42,1.42,0,0,0-.24,1.24,3.38,3.38,0,0,1-.44,2.52,4.78,4.78,0,0,1-.39.5l-.44.58.81.32a8.7,8.7,0,0,1,2,.91,1.79,1.79,0,0,1,.83,1.34,2.49,2.49,0,0,0-1,1.58,2.93,2.93,0,0,1-.59.24.93.93,0,0,0-.61.4,1.49,1.49,0,0,1-.66.47,2.09,2.09,0,0,1-1.79.14l-.18,0a7.28,7.28,0,0,1-1.48,0,7.38,7.38,0,0,0-1.4-.45,5.66,5.66,0,0,0-1,0,42.14,42.14,0,0,0-4.87.76,15.32,15.32,0,0,0-4.77,1.08,12.87,12.87,0,0,1-2.44.56,24.54,24.54,0,0,0-5.82,1.61.68.68,0,0,0-.48.52,1.22,1.22,0,0,1-.65.86c-.39.23-.63.7-1.18.78l-.62-.19a11.75,11.75,0,0,1-2.8.81,1.11,1.11,0,0,1-.63,0,6.59,6.59,0,0,1-1.42-.87c-.62-.56-1.15-1.22-1.72-1.84a4.43,4.43,0,0,1-1.06-3,1.14,1.14,0,0,1,.17-.52c.22-.41.46-.81.7-1.25l.71-.11.23-.55a6.38,6.38,0,0,1,2.26.12.65.65,0,0,0,.36,0,14.25,14.25,0,0,0,1.73-.32c1.46-.44,2.9-.92,4.35-1.38.14,0,.27-.13.48-.22a11.29,11.29,0,0,0-.68-.93,2.94,2.94,0,0,1-.8-2.31,1.55,1.55,0,0,0-.48-1.27,12.73,12.73,0,0,1-.86-1.15c.13-.29.24-.5.32-.73a6.25,6.25,0,0,0,.16-.62,2.24,2.24,0,0,1,1.81-.16,3.21,3.21,0,0,0,1.38,0,.62.62,0,0,0,.43-.29.8.8,0,0,1,.84-.44,2,2,0,0,1,1.31.39l1.22-.33a1.93,1.93,0,0,1,1.38,1.33,11,11,0,0,1,.82,2.12c-.1.13-.17.33-.31.43a1.62,1.62,0,0,0-.62,1.81c0,.27.1.54.16.88l3.09-.45a1.06,1.06,0,0,0,.09-.89l-.3-2.23c0-.21-.06-.43-.11-.64l-.9-3.94a7.28,7.28,0,0,0-.66-1.88,5.79,5.79,0,0,0-2,.35,13.72,13.72,0,0,0-3.08,1c-1,.16-2,.69-3.08.53a2.33,2.33,0,0,0-.82.12c-.52.1-1,.22-1.53.33a6.67,6.67,0,0,0-.58-.53,1.17,1.17,0,0,1-.52-.94,2.8,2.8,0,0,0-.22-.8,1.12,1.12,0,0,1-.08-.87,2.49,2.49,0,0,0,1.54-.61l-.6-.37c1.09-.59,2.14-1.19,3.22-1.73a25.13,25.13,0,0,1,3.39-1.28c1.14-.38,2.34-.56,3.45-1a6,6,0,0,0-.68-2.66.55.55,0,0,0-.62-.32,11.06,11.06,0,0,0-1.29.14,1.58,1.58,0,0,1-1.48-.29,1.14,1.14,0,0,0-.88-.2c-.37,0-.74,0-1.15,0-1,1.21-2,2.43-3,3.64a10,10,0,0,1-.85.87c-.5.46-1,.92-1.54,1.35s-.94.71-1.42,1a14.92,14.92,0,0,1-4.23,2.32,22.45,22.45,0,0,1-2.27.5.89.89,0,0,1-.36,0,31.23,31.23,0,0,0-3.34-.23,2.25,2.25,0,0,1-.7-.21c-.37-.15-.73-.33-1.08-.51-.16-.09-.36-.2-.41-.35-.12-.35-.4-.41-.68-.55a18.66,18.66,0,0,1-1.81-1.11,2,2,0,0,0-1-.45c-.43,0-.62-.5-1.11-.5l.41-.62-.36-.74.62-1.75,2.75-2.51a3.86,3.86,0,0,1,1.46-1,4.75,4.75,0,0,1,1-.17c.43-.05.86,0,1.29-.09,1-.14,2-.32,2.93-.48a6.92,6.92,0,0,0,2.67-1.07c1.38-.89,2.77-1.78,4.08-2.78a31.45,31.45,0,0,0,3.74-3.38c2.1-2.22,3.95-4.65,5.9-7,.57-.7,1.17-1.37,1.78-2a11.06,11.06,0,0,0,1.56-2,7,7,0,0,0,.31-.68l-.43-.83.74-.14c.44-.51.91-1,1.3-1.56A6.07,6.07,0,0,0,150,4.69c.08-.2.12-.42.22-.62a1,1,0,0,1,.85-.64c.56-.05,1.11-.13,1.67-.14s.84.27.85.86a4.75,4.75,0,0,1,0,.5L154,5a2.53,2.53,0,0,1,1,1.51,1.56,1.56,0,0,0,.4.72,5.77,5.77,0,0,1,1.27,2.21,5.21,5.21,0,0,0,.7.06,22.35,22.35,0,0,1,4.16.45,5.75,5.75,0,0,1,1,.31,5.83,5.83,0,0,0,.7.25A10.75,10.75,0,0,1,166,11.75c.45.25,1,.44,1.43.65s.76.27,1.12.45a1,1,0,0,1,.57,1.25,2.63,2.63,0,0,1-.67,1.51s0,.09,0,.15l4.91-1.25a.89.89,0,0,0,0-.3c0-.21-.08-.42-.13-.64l-.93-.5.15-1.35c-.08-.16-.2-.34-.29-.54a2.92,2.92,0,0,1,0-2.85,6.15,6.15,0,0,0,.88-2.15,1.1,1.1,0,0,1,.36-.52,9.65,9.65,0,0,1,.84-.72.69.69,0,0,1,.31-.19,4.31,4.31,0,0,0,1.47-.52,1.15,1.15,0,0,1,1.37.25,2.06,2.06,0,0,1,.33.33c.64,1,1.27,2.07,1.89,3.12a1,1,0,0,1,.12.44c0,.66,0,1.32-.06,2a7.65,7.65,0,0,1-.29,1.22,2.48,2.48,0,0,1,.24.46,1.08,1.08,0,0,1,.07.63A1.67,1.67,0,0,0,180,14.17Z"/><path class="cls-1" d="M189.16,56.59c-.36-.94.51-1.64.36-2.55a1.06,1.06,0,0,0-.18-.24.88.88,0,0,1-.29-1.08,11.42,11.42,0,0,1,.49-1.5,9.57,9.57,0,0,0,.44-1.79,1.63,1.63,0,0,0,.55-.86.52.52,0,0,1,.13-.24l2.15-2.57s.08-.12.12-.13c.8-.14,1-.9,1.38-1.42s.88-1.29,1.33-1.93a7.64,7.64,0,0,1,.75-1,8.89,8.89,0,0,0,1.46-2.09,3.33,3.33,0,0,0-.16-.51,47.2,47.2,0,0,1-1.87-4.4,26.09,26.09,0,0,0-1.13-2.47c-.57-1.11-1.18-2.2-1.81-3.37-.42,0-.91,0-1.4,0l-2.5-.12a5.76,5.76,0,0,0-.82.11c-.43.06-.85.13-1.28.17a1,1,0,0,1-.91-.43l-.11-1.8c.07-.07.1-.14.16-.15a2.59,2.59,0,0,0,1.72-1,9.4,9.4,0,0,1,3.57-2.11,2.3,2.3,0,0,0,.29-.16,4.7,4.7,0,0,0-.06-.51c-.06-.18-.15-.34-.23-.52-.61-1.43-1.24-2.86-1.82-4.3a6.56,6.56,0,0,1-.4-1.64,17.09,17.09,0,0,0-.5-2.66c-.48-1.75-.93-3.5-1.4-5.25,0-.15-.11-.29-.17-.46a3.91,3.91,0,0,1-.71-.21,2.51,2.51,0,0,1-.8-3.63,2.13,2.13,0,0,1,2.2-1.07,1,1,0,0,0,1-.34A4.57,4.57,0,0,1,191,1.23a1.22,1.22,0,0,1,.63,0c.52.11,1,.25,1.54.38a1.52,1.52,0,0,1,1,1A4.17,4.17,0,0,0,195,3.86c.65.69.93,1.4.26,2.24a5.59,5.59,0,0,1,.38,2.49,9,9,0,0,0,.4,3,4.57,4.57,0,0,1,.15,1.11c0,.56.07,1.12.1,1.68a1.45,1.45,0,0,1,0,.28,6.08,6.08,0,0,0,.8,3.23c.16.4.24.84.37,1.25a8.4,8.4,0,0,0,1,2.11,21.58,21.58,0,0,1,3.93-.08c.43,0,.87,0,1.3,0s.86.06,1.3.09.92.05,1.38.06c.86,0,1.73,0,2.6,0a2.7,2.7,0,0,0,1.5-.43,8.31,8.31,0,0,1,1.08-.53,2,2,0,0,1,.54-.13.79.79,0,0,1,1,.65,3.71,3.71,0,0,1-.64,3.28,1.82,1.82,0,0,1-.84.55,10.28,10.28,0,0,1-1.65.25,4.88,4.88,0,0,0-1.64.28,1.7,1.7,0,0,1-.63.14,21.1,21.1,0,0,1-3,.09,7.15,7.15,0,0,0-4.57,1.09,2.47,2.47,0,0,0,.18,1.6c.36.9.77,1.78,1.17,2.66s.84,1.81,1.27,2.71a4.93,4.93,0,0,0,.28.48,5.57,5.57,0,0,0,1.4-1.28,6.08,6.08,0,0,1,1.36-1.27,3.81,3.81,0,0,0,.75-.7,15,15,0,0,1,2.6-2.1c.23-.15.43-.28.43-.56s.26-.56.5-.74a4,4,0,0,1,.73-.4.8.8,0,0,1,1,.14,1.35,1.35,0,0,0,1,.47.81.81,0,0,1,.41.21,16.29,16.29,0,0,1,1.54,1.2,3,3,0,0,1,.78,2.6,13.07,13.07,0,0,1-.35,1.74,1.44,1.44,0,0,1-.65.89,4.22,4.22,0,0,1-1,.51,1.68,1.68,0,0,0-1.06,1,3.68,3.68,0,0,1-2.31,2,5.67,5.67,0,0,0-2.07,1.4c0,.05-.1.09-.11.15a9.05,9.05,0,0,1-1.19,1.8,15,15,0,0,0,1.82,2.36,29.07,29.07,0,0,0,2.79,2.76,31.1,31.1,0,0,0,2.8,2.16c1.45,1,2.92,2,4.4,3a8,8,0,0,0,1.25.61c1.26.52,2.53,1,3.79,1.53l.61.23c.17.06.36.08.54.15a19,19,0,0,0,3.41.88,2.82,2.82,0,0,1,.8.23,9.17,9.17,0,0,0,2.77.74c.49.06,1,.17,1.64.29a2,2,0,0,1-1.27,0,.73.73,0,0,0-.78.24c.83.34,1.74,0,2.48.31s1.57.19,2.36.52a8.3,8.3,0,0,1-2.13,1.8v1.15l-1.3,1.12a.69.69,0,0,1-.23.16,6.86,6.86,0,0,1-1,.22c-.34,0-.53.34-.92.36a7.58,7.58,0,0,0-2.65.79l-.05.47s-.1.08-.15.08c-.59.08-1.17.14-1.76.2a4.54,4.54,0,0,1-.74,0c-.68,0-1.35-.06-2-.09a1.17,1.17,0,0,0-.37,0,19.56,19.56,0,0,1-2,.46,3.22,3.22,0,0,1-2.39-.45l-3.08-2.27a5.87,5.87,0,0,1-1.3-1.33,10.36,10.36,0,0,0-1-1.08c-.11-.11-.27-.16-.38-.27l-3.42-3.44c-.58-.57-1.14-1.15-1.74-1.69a31.58,31.58,0,0,1-4.8-5.33l-.8-1.09A5.49,5.49,0,0,0,200.82,48c-.26.35-.55.67-.78,1a11.28,11.28,0,0,1-1.26,1.49,9,9,0,0,0-1.45,2.16,11.77,11.77,0,0,1-.88,1.33l-1.93,2.86a3.2,3.2,0,0,1-.32.36l-.49-.46-.64.21a1,1,0,0,1-.3-.21,1.25,1.25,0,0,0-1.53-.54C190.59,56.37,189.91,56.45,189.16,56.59Z"/><path class="cls-1" d="M169.11,37.93c.18-.34.36-.66.52-1a1.4,1.4,0,0,0,.15-.53,3.45,3.45,0,0,1,.13-1.1.94.94,0,0,0,0-.64,8.55,8.55,0,0,0-.6-1.26.89.89,0,0,0-.76-.47,7.87,7.87,0,0,1-2.09-.73c-.33-.13-.4-.3-.64-.89l.67-.09.22-.82a.67.67,0,0,1,.22-.13,12.61,12.61,0,0,0,1.36-.28c1.17-.4,2.38-.62,3.53-1.08a5,5,0,0,1,1.44-.32c.84-.08,1.66-.26,2.49-.38a12.9,12.9,0,0,1,1.38-.14,18.84,18.84,0,0,0,4.66-.77,4.78,4.78,0,0,1,2.9,0,1.44,1.44,0,0,1,1,1.63,11.68,11.68,0,0,1-.24,1.29,5.07,5.07,0,0,0-.09,1.86,1.15,1.15,0,0,1-.36,1.11,1.67,1.67,0,0,0-.66,1.27c0,.39-.29.6-.62.74l-.95.46c-.29-.23-.58-.13-.82.27a1.29,1.29,0,0,0-1.69-.22,2,2,0,0,1-1,.19,1.83,1.83,0,0,1-.47,0,6.67,6.67,0,0,0-4.39.82c-.5.25-1,.47-1.5.73-.14.07-.23.24-.49.54.54-.13.86-.22,1.19-.29,1.33-.29,2.65-.62,4-.86a22.76,22.76,0,0,1,2.95-.33c1.36-.06,2.73,0,4.09,0a11.21,11.21,0,0,1,2.94.4c.14,0,.27.12.45.19-.11.5-.55.7-.79,1.13l.11.62a5.07,5.07,0,0,1-2.18,1.64,8.83,8.83,0,0,1-2.7.5.66.66,0,0,0,0,.8c.06,0,.1.1.16.11a3.6,3.6,0,0,0,1.63,0,7.05,7.05,0,0,1,2.67,0,5.11,5.11,0,0,1,1.73.65,2.6,2.6,0,0,1,.38.34,6.6,6.6,0,0,1-1.82.7l.07.5-1.14.7-.21.7c-1.23.67-2.63.58-3.95.81-.08.63-.07.66.35.81a13.21,13.21,0,0,0,5.1.76,1.91,1.91,0,0,1,1.86.71c0,.15,0,.39-.1.5-.35.39-.37,1-.83,1.3a.79.79,0,0,0-.25.4,8,8,0,0,1-1.13,1.69,1.45,1.45,0,0,1-1.22.57,4,4,0,0,1-1.74-.08,2,2,0,0,0-.64-.08l-3.91-.14a8,8,0,0,0-2.84.35,1.53,1.53,0,0,1-.45.13c-1.45,0-2.76.66-4.16.9a1.65,1.65,0,0,0-.45.11,1.53,1.53,0,0,1-1.2.31c-.49.34-1,.11-1.55.16h-.27a.87.87,0,0,1-.84-.94c0-.22,0-.44,0-.66a1.35,1.35,0,0,0-.11-.34l.64-1.22a3.08,3.08,0,0,1,.44-.21A45.09,45.09,0,0,0,173,49.43a11.11,11.11,0,0,1,2.35-.88,6.11,6.11,0,0,0,1-.41,2.79,2.79,0,0,0-.18-1.5,4.13,4.13,0,0,0-.63,0c-.93.27-1.85.56-2.77.84a1,1,0,0,0-.34.12,13.58,13.58,0,0,1-2.75,1.16l-1.29-.33-1-.89a4.11,4.11,0,0,1,.85-2c.72.12,1.11-.66,1.89-.76a1.23,1.23,0,0,0,1.39-.18,6,6,0,0,1,1.29-.51c.9-.32,1.77-.73,2.67-1.1a2.19,2.19,0,0,0-.3-1.38,8.46,8.46,0,0,0-2.08.52,1,1,0,0,0-.45.32,3.72,3.72,0,0,1-1.34,1,1.41,1.41,0,0,1-1.17.08c-.72-.19-1.42-.43-2.13-.64a1.72,1.72,0,0,1-1.21-1.61c0-.07.07-.16.1-.24.51.27.51.27.94.2,0-.39-.51-.33-.55-.67a5.07,5.07,0,0,1,1.71-1,.93.93,0,0,0,.31-.19.63.63,0,0,0,.17-1C169.38,38.26,169.24,38.1,169.11,37.93Zm11.09-7.61-.48.16a13.39,13.39,0,0,1-4.32,1,1.2,1.2,0,0,0-1,.43c0,.3,0,.65,0,1s-.11.66-.17,1.06a20.15,20.15,0,0,0,2.1-.63c.72-.17,1.45-.35,2.18-.46s1.4-.13,2.18-.2A5.92,5.92,0,0,0,180.2,30.32Z"/><path class="cls-1" d="M210.52,16.75a2.11,2.11,0,0,1-2.12.86,3.75,3.75,0,0,0-1.89.4l-1,.44c-.34-.4-.63-.76-.94-1.11a6.83,6.83,0,0,0-.84-.86,1.19,1.19,0,0,1-.47-.87c0-.49-.13-1-.2-1.46-.05-.06-.07-.13-.12-.17l-.94-.74c-.57.11-1.15.21-1.71.34a3.42,3.42,0,0,0-.64.26l-1.38-1.27a3.3,3.3,0,0,1,.62-1.84s0-.06.06-.07c.75-.32.93-1.19,1.55-1.65a7,7,0,0,0,.71-.73c.15-.16.3-.32.46-.46A3.07,3.07,0,0,1,202,7.6c.27.14.51.36.74.36a2,2,0,0,0,.87-.29,1.85,1.85,0,0,1,2.17.13,2,2,0,0,0,.74.36,6.73,6.73,0,0,1,3.64,2.09c.26.3.62.52.91.8a1.53,1.53,0,0,1,.43,1.85,18.44,18.44,0,0,0-.6,2.24C210.79,15.65,210.67,16.16,210.52,16.75Z"/></svg>