<svg id="圖層_1" data-name="圖層 1" xmlns="http://www.w3.org/2000/svg" viewBox="0 0 110 175"><defs><style>.cls-1{fill:#fff;}</style></defs><title>2020-12-17-出圖元件</title><path class="cls-1" d="M49.38,29.92l.41.61-.6.94c.18.28.57.06.78.33l.25.77a1.41,1.41,0,0,1-.57.89c-.12.1-.29.21-.33.33-.11.45-.41.49-.78.39l-.19.58c-.57.07-1.17,0-1.61.33-.08,0-.11,0-.13,0a3,3,0,0,0-2.1-.3,8.14,8.14,0,0,1-1.48,0,9.05,9.05,0,0,0-2.87.29,1.41,1.41,0,0,0,0,1.34.93.93,0,0,1,.07.52,11.43,11.43,0,0,0,0,3.2,7,7,0,0,1,.11.78c0,.15,0,.37-.09.44-.36.32-.27.71-.23,1.1a2,2,0,0,0,.08.34,9,9,0,0,0,2.08-.25.62.62,0,0,0,.47-.56,13.9,13.9,0,0,0,.08-2.66,1.13,1.13,0,0,0-.25-.56c-.2-.31-.45-.58-.66-.88a2,2,0,0,1-.52-1.23,1.09,1.09,0,0,0,.27-.21A1.46,1.46,0,0,1,43,35.77c.29,0,.57,0,.86,0a1.33,1.33,0,0,1,.81.24,2.65,2.65,0,0,0,1.37.47,13.7,13.7,0,0,1,1.55.31,6.46,6.46,0,0,1,.1,2,6.11,6.11,0,0,0-.07.86A4.81,4.81,0,0,1,47,42.21a2.17,2.17,0,0,0,.44.11l2.8.13.31,0a3.64,3.64,0,0,1,2.9,2.24.7.7,0,0,1,.08.52,2.32,2.32,0,0,0,0,1.17,2.92,2.92,0,0,0-.65,1.29A1.88,1.88,0,0,1,51.73,49a2.05,2.05,0,0,0-1,.81L50,50c-.42-.28-.86-.56-1.28-.86A1,1,0,0,0,48,48.9c-.44,0-.88,0-1.32,0-.67,0-1.35,0-2-.06s-1.41-.08-2.1-.19a18.71,18.71,0,0,0-3.51-.11H38.9c-1.15.23-2.3.43-3.44.68s-2.46.63-3.7.92c-.89.2-1.79.36-2.68.52a26.78,26.78,0,0,0-3.52,1l-1.21.44.08.49c-.11.09-.25.21-.4.31a1,1,0,0,1-1.4,0,4.28,4.28,0,0,0-1.54-.9,1.44,1.44,0,0,1-.68-.5A2.61,2.61,0,0,0,20,51a1.49,1.49,0,0,1-.62-1A2.25,2.25,0,0,0,19,49a.63.63,0,0,1,0-.69l.46-.13-.09-.68c.06-.07.12-.19.2-.21a3.82,3.82,0,0,1,1.74-.31,1.66,1.66,0,0,0,.76-.07c1.08-.3,2.15-.63,3.22-.94l2.48-.69.4-.13a3.86,3.86,0,0,0,0-.47c0-.37-.07-.73-.08-1.1a2,2,0,0,0-1-1.87.8.8,0,0,1-.35-1c.41-.43.75-.87,1.15-1.22s.94-.57,1.21-1a1.3,1.3,0,0,1,1.49.43,6.33,6.33,0,0,1,.95,1.12,6,6,0,0,0,.64.79.66.66,0,0,1,.2.77,1.08,1.08,0,0,0,0,.77,1.68,1.68,0,0,1-.25,1.49c-.1.14-.18.3-.27.45a1.07,1.07,0,0,0,.87.07l2.81-.66s.08-.05.18-.12l-.31-.6a.21.21,0,0,1,0-.12,1.69,1.69,0,0,0,0-1.09,8.13,8.13,0,0,1-.24-2.09,8.29,8.29,0,0,0-.29-1.85,2.55,2.55,0,0,1-.13-1,1.31,1.31,0,0,0-.16-.95,1.61,1.61,0,0,0-.49-.06c-.64.13-1.27.29-1.9.44a5.75,5.75,0,0,1-.66.23A9.54,9.54,0,0,0,28,37.88c-.13.07-.22.22-.34.32a3.07,3.07,0,0,1-.62.47,1.72,1.72,0,0,0-.83.64,1.27,1.27,0,0,1-1.17-1.21c-.06-.47-.18-.93-.25-1.39,0-.2.12-.47,0-.6-.33-.48-.13-1-.07-1.44.08-.65.25-1.29.38-1.94a16.84,16.84,0,0,0,1.21-1.18,1.11,1.11,0,0,1,1.18-.43c0-.25.1-.5.14-.76s.15-.82.2-1.24a4.28,4.28,0,0,0-.31-2,3.47,3.47,0,0,1-.23-1.06,2.16,2.16,0,0,0-.55-1.42,1.46,1.46,0,0,0-.17,0c-.65.48-1.27,1-1.95,1.44-1.12.71-2.09,1.62-3.14,2.43a6.85,6.85,0,0,0-.66.66,4.44,4.44,0,0,1-1.09.88c-1,.56-1.9,1.18-2.85,1.76a6.84,6.84,0,0,1-1.13.53,11.46,11.46,0,0,1-2.7.72c-.35,0-.71.06-1.14.09l-.64-.39a1.82,1.82,0,0,0-.33.11,1.06,1.06,0,0,1-1.22-.13,3,3,0,0,0-1.88-.66c-.42,0-.71-.28-1-.51s-.7-.55-1.06-.8a2.49,2.49,0,0,0-.48-.26,3.64,3.64,0,0,1-1.19-.73,2.63,2.63,0,0,0-.72-.47,7.66,7.66,0,0,1-1.58-1c-.43-.33-.89-.64-1.34-1a.46.46,0,0,1,.18-.54c.24-.17.2-.4.16-.66a10.51,10.51,0,0,1,2.41-1A19.42,19.42,0,0,0,7.15,23.6,17.13,17.13,0,0,1,11,22.2a49.54,49.54,0,0,0,6-2.09c1.25-.51,2.44-1.18,3.66-1.77a21.42,21.42,0,0,0,4.16-2.62c.92-.73,1.77-1.54,2.65-2.32.46-.41.91-.84,1.36-1.27a2.28,2.28,0,0,0,.22-.22l1.8-2.17a2.21,2.21,0,0,0,.3-.45,10,10,0,0,1,2.12-2.71c.65-.64,1.38-1.19,2.06-1.8A7,7,0,0,0,37,3.12,4.8,4.8,0,0,1,38,2.18,1.35,1.35,0,0,0,39.31,2a2.39,2.39,0,0,1,.56-.2L41.22,5a.21.21,0,0,0,.1.07c1.06.23,1.87,1,2.88,1.36a1.48,1.48,0,0,1,.57.4,3.36,3.36,0,0,0,1,.71c.64.31,1.26.64,1.9.93a2.36,2.36,0,0,0,.82.21,2,2,0,0,1,1,.3c.36.21.75.35,1.13.53.09,0,.21.06.27.13a6.39,6.39,0,0,0,1.58,1A3.21,3.21,0,0,1,54.14,13a7,7,0,0,1,.14,2.41,4,4,0,0,1-1,2.39,10.58,10.58,0,0,1-.81.83,1.81,1.81,0,0,0-.55.75,2.69,2.69,0,0,1-.38.59,1.5,1.5,0,0,1-1-.65,8.38,8.38,0,0,1-1.19-1.64c0-.11-.18-.18-.28-.26a17.34,17.34,0,0,0-1.69-1.27,4.8,4.8,0,0,1-1-.86c-.81-.82-1.59-1.66-2.39-2.49a9.83,9.83,0,0,0-.76-.67A5.05,5.05,0,0,1,42,10.72c-.12-.22-.33-.41-.44-.64a1.32,1.32,0,0,0-1.3-.81l-1.33,1c-.08.13-.18.35-.31.54a1,1,0,0,1-.87.56,1.1,1.1,0,0,0-1,.58c-.49.71-1,1.4-1.5,2.1a8.16,8.16,0,0,1-.74.91,9.77,9.77,0,0,0-1.18,1.75,1.75,1.75,0,0,0-.14.44,4.4,4.4,0,0,0,.64,0,41.64,41.64,0,0,1,5.69-.29,6,6,0,0,1,.85,0c1.51.21,3,0,4.52.12.62,0,1.24.11,1.86.2a1.78,1.78,0,0,1,.58.22c.12.08.28.23.29.35A4.94,4.94,0,0,0,48,19c-.47.71-.47.71-.35,1.4l-.41.37,0,.49-.68.65-1,0a3.91,3.91,0,0,0-.77,0,2.34,2.34,0,0,1-1.31-.08c-.35-.1-.7-.2-1-.33a3.3,3.3,0,0,0-2.58,0,3,3,0,0,1-1.29.21,7.71,7.71,0,0,0-2.25.2,9.73,9.73,0,0,1-2.41.13c-.49,0-1,0-1.48,0a2.59,2.59,0,0,0-1.28.4c.26.63,0,1.37.46,2l.54-.06a24.56,24.56,0,0,1,4-.5A14.76,14.76,0,0,0,38,23.64a41.33,41.33,0,0,1,5.45-.34A8.69,8.69,0,0,0,45,23.07a4.47,4.47,0,0,1,2,.19c.52.14,1.05.29,1.58.41a2.34,2.34,0,0,1,1.18.52c0,.07,0,.14-.05.16a4.27,4.27,0,0,0-1.11,1.25,2.18,2.18,0,0,1-.75.67,1.66,1.66,0,0,0-.39.26,2.23,2.23,0,0,1-1.82.49,8,8,0,0,0-1.47.07c-1.66.17-3.31.33-5,.46a33.08,33.08,0,0,0-4.33.56,6.15,6.15,0,0,0-1.74.37c-.23.12-.57,0-.85.07-.54.05-.68.18-.71.73a2.43,2.43,0,0,1-.36,1.26,3.73,3.73,0,0,0-.16.43,3.6,3.6,0,0,0,.56,0c1.77-.3,3.56-.46,5.31-.88a14.72,14.72,0,0,1,2-.25,34.07,34.07,0,0,1,4.51-.32c1,0,2,.14,2.95.21a5.78,5.78,0,0,0,.93,0,1.84,1.84,0,0,1,1.13.1A2.74,2.74,0,0,0,49.38,29.92Z"/><path class="cls-1" d="M94.15,53.13l-.59-.33-1.3,1.5L92,54.19c-.53-.26-1.13-.43-1.34-1.09-.66-.3-.75-1-.93-1.55,0-.09-.05-.23-.12-.28-.47-.33-.41-.82-.39-1.28s.08-.83.13-1.25c0-.13.07-.28,0-.38a2.07,2.07,0,0,1,.06-1.16,6.89,6.89,0,0,0,0-1.87c0-.52-.06-1-.07-1.57a12.91,12.91,0,0,0-.21-1.95c-.16-.93-.24-1.87-.35-2.81a17.21,17.21,0,0,1-.06-2.59,5.51,5.51,0,0,0-.06-.7c0-.23-.1-.45-.16-.68-.21.15-.07.36-.09.53s0,.42,0,.63,0,.47-.08.7,0,.42-.07.63,0,.42-.06.62-.1.41-.15.65a1.81,1.81,0,0,0-.51-.11,2,2,0,0,0-.49.24l-1.1.59c-.27.59-.43,1.26-1.14,1.54-.18,0-.38-.11-.58-.15a.89.89,0,0,1-.74-.72,4.26,4.26,0,0,0-.76-1.61,3.63,3.63,0,0,1-.5-1,1,1,0,0,1,.21-1L82.28,36a6.11,6.11,0,0,0-3,.08,4.94,4.94,0,0,1-2,.37,2.1,2.1,0,0,0-1,.26,8.75,8.75,0,0,1-2,.68,1.79,1.79,0,0,0-.53.13A35.9,35.9,0,0,0,70,39.38c-.13.09-.33.19-.34.3,0,.36-.32.48-.57.58A1.81,1.81,0,0,0,68,41.36a.69.69,0,0,1-.5.46,1.66,1.66,0,0,1-1.34-1.26c-.09-.27-.16-.55-.27-.81a2.81,2.81,0,0,0-.44-.82,1,1,0,0,1-.21-1.23,1.94,1.94,0,0,0,0-1.6,2.45,2.45,0,0,1-.1-.54c-.1-.56.06-1.14,0-1.71a.74.74,0,0,1,.3-.69,4.22,4.22,0,0,0,1-2.17,9.31,9.31,0,0,1,.85-2.44,1.87,1.87,0,0,0,.2-.59.92.92,0,0,0-.37-1.1,3.46,3.46,0,0,1-.4-.35,6.58,6.58,0,0,1-3.08-.34.89.89,0,0,0,0,.75c.18,1.08.39,2.16.54,3.25a15.08,15.08,0,0,1,.05,1.65c0,1.23.08,2.46.06,3.69A18,18,0,0,1,64,39c-.09.41-.08.84-.16,1.25s-.24.91-.34,1.37-.23,1.22-.37,1.83a3.87,3.87,0,0,1-.36,1.12,7.83,7.83,0,0,0-1,3.36,6.52,6.52,0,0,1-.41,1.59,1.93,1.93,0,0,1-.26.49,9.45,9.45,0,0,0-.89,1.37,1.39,1.39,0,0,1-.3.29,6.67,6.67,0,0,1-1.83-1.72l-.58.24s-.09-.07-.09-.1a.67.67,0,0,0-.34-.58,2.75,2.75,0,0,1-.91-1.23,7.48,7.48,0,0,1-.55-2.2A3.37,3.37,0,0,1,56,43.61a4,4,0,0,0,.43-1.17A4.43,4.43,0,0,1,57,41.22a10.25,10.25,0,0,0,1.52-4.58c.1-1,.12-2,.18-3s.15-2,.19-3c0-.74,0-1.47,0-2.21,0-1.07-.07-2.15-.19-3.22-.17-1.53-.43-3.06-.64-4.59-.14-1-.26-2-.38-3,0-.32,0-.63-.09-.94a2.07,2.07,0,0,0-.47-1.06,13.57,13.57,0,0,0-1-1.35.82.82,0,0,1-.17-.35c-.22-.59-.13-.76.43-1a4.58,4.58,0,0,0,.91-.59.84.84,0,0,1,1-.14,4.47,4.47,0,0,1,1.61.92,5.21,5.21,0,0,0,1,.76,4,4,0,0,1,.78.75c.19.22.31.49.5.7a4,4,0,0,1,.71,1.38,1.5,1.5,0,0,1-.06,1.23A3.46,3.46,0,0,0,62.48,20c.07.73.22,1.45.33,2.17a1.58,1.58,0,0,0,.11.23L64,22.7a2.4,2.4,0,0,1,1.09-.52,1.56,1.56,0,0,0,.49-.22A7.1,7.1,0,0,1,68,20.51a1.54,1.54,0,0,0-.23-1l-.46-.73a.71.71,0,0,1-.13-.51,2.58,2.58,0,0,0-.06-.61,1,1,0,0,0-.5-.75,1.76,1.76,0,0,1-.37-.29.57.57,0,0,1-.18-.33,2.75,2.75,0,0,1,.17-1.39.84.84,0,0,1,.8-.53l1.09,0a1,1,0,0,1,.77.32,1.5,1.5,0,0,0,1.7.42,1.24,1.24,0,0,1,1.35.38,3.06,3.06,0,0,1,.91,2.93c0,.18-.07.35-.12.59a2.19,2.19,0,0,0,.55,0A24.29,24.29,0,0,0,76,18.35a1.61,1.61,0,0,1,1.63.07c.33-.39.14-.72,0-1a7,7,0,0,0-.42-.93,1.9,1.9,0,0,1,.28-1.3.93.93,0,0,0-.08-1c-.19-.3-.38-.62-.61-1L76.1,13a8.84,8.84,0,0,1,.58-1.15.81.81,0,0,1,1-.37.77.77,0,0,0,.38.08,1.73,1.73,0,0,1,1.56.54,3.06,3.06,0,0,0,1.41.61,1.18,1.18,0,0,1,.66.37,3.55,3.55,0,0,0,.33.34,1.58,1.58,0,0,1,.36,2.06c-.1.24-.24.46-.38.72a2.68,2.68,0,0,1-.28,1.92,7.37,7.37,0,0,1,3.25.57,4.14,4.14,0,0,1,1.36.71c0,.41.42.9-.18,1.3l.21.49a1.87,1.87,0,0,1-.63,1.07,2.54,2.54,0,0,0-.5.7c0,.09,0,.23,0,.37a8.41,8.41,0,0,1-2.4.13c-.62,0-1.24-.1-1.86-.19a5.17,5.17,0,0,0-1.71,0c-.33.06-.67.07-1,.11a4.09,4.09,0,0,0-.41.12,2.57,2.57,0,0,0,1.64.88,10.85,10.85,0,0,1-.15,3.16A16,16,0,0,0,79,29.59a2,2,0,0,0,.05.54,1.33,1.33,0,0,1,0,.39,5.63,5.63,0,0,0,0,1.64,1,1,0,0,0-.5.87,5.38,5.38,0,0,0,2.66-.18,3.13,3.13,0,0,0,.16-.49,7.26,7.26,0,0,0,.06-.93,1.82,1.82,0,0,0-.08-.62,4.37,4.37,0,0,1-.2-1.93,2,2,0,0,0-.3-1.58,3,3,0,0,1,.36-.12c.25,0,.54.05.68-.26a.08.08,0,0,1,.07,0,11.68,11.68,0,0,1,1.67-.3,2,2,0,0,1,1.28.67c.26.26.51.52.79.76a6.87,6.87,0,0,1,1.53,1.87,8.36,8.36,0,0,1,.48,1.49c.16.5.31,1,.47,1.53.22-.14.14-.31.14-.43a4.14,4.14,0,0,0,0-.79,38.08,38.08,0,0,1-.11-3.85,7.4,7.4,0,0,0,0-.94,7.18,7.18,0,0,1,0-2.12,5.94,5.94,0,0,0-.07-2.1A10.23,10.23,0,0,1,88,18a2.32,2.32,0,0,0,0-1.17,3.38,3.38,0,0,1-.07-.78,2.59,2.59,0,0,0-.22-1.45c-.16-.26,0-.56.15-.84-.13-.31-.29-.61-.39-.93a6.56,6.56,0,0,1-.29-1.22c0-.18.13-.37.23-.63l-.25-1.77.21-.54c-.11-.08-.17-.16-.23-.16a10.27,10.27,0,0,0-1.47.09,5,5,0,0,1-1.63,0,10.1,10.1,0,0,0-2.8,0c-.28.05-.57,0-.85.06s-.83.07-1.24.13c-.95.13-1.9.31-2.86.39a4.39,4.39,0,0,0-1.64.44,4.53,4.53,0,0,1-1.73.42c-1.14.11-2.28.2-3.41.38a9.93,9.93,0,0,0-1.62.54c-.38.12-.52.48-.7.78a3,3,0,0,1-1.71-.05c-.28-.09-.55-.19-.81-.29a3.63,3.63,0,0,0-1.53-.22,2.54,2.54,0,0,1-2.43-.94c-.06-.08-.17-.11-.25-.16s0-.07,0-.08l.11-.24-.35-.44a.78.78,0,0,1,0-.19,4.71,4.71,0,0,0,.22-.59,1.64,1.64,0,0,1,.78-1,8.33,8.33,0,0,1,2.1-1,2.61,2.61,0,0,0,.56-.26,4.15,4.15,0,0,1,2-.62,2.17,2.17,0,0,0,.62-.1,9.08,9.08,0,0,1,2.08-.3c.44,0,.87-.1,1.31-.13s.89,0,1.32-.1c.65-.07,1.29-.15,1.93-.28a8.85,8.85,0,0,1,1.7-.13,13.22,13.22,0,0,0,1.41,0,21.83,21.83,0,0,1,4.2,0,4.88,4.88,0,0,0,1,0A8.14,8.14,0,0,1,84,4.58a3,3,0,0,1,.72.28,2.72,2.72,0,0,0,1.81.26.75.75,0,0,0,.2-.1V3.87a3,3,0,0,0,.37-.22,2.45,2.45,0,0,0,1-1.11A2.51,2.51,0,0,1,88.44,2a1.19,1.19,0,0,0,.37-1,7.76,7.76,0,0,0,1.7.86.83.83,0,0,1,.57.58,1.8,1.8,0,0,0,.48.79c.25.26.42.6.65.88a15.46,15.46,0,0,0,1.14,1.4A2.22,2.22,0,0,1,93.93,7a1.45,1.45,0,0,0,.18.74.85.85,0,0,1,0,.76c-.2.54-.39,1.08-.56,1.63a1.34,1.34,0,0,0,0,.53,2,2,0,0,1-.25,1.43,1.49,1.49,0,0,0-.16,1.35,7.48,7.48,0,0,1,.3,2.17,9.87,9.87,0,0,0,.28,1.77c.08.44.17.88.24,1.31a4.08,4.08,0,0,1-.2,2,2.42,2.42,0,0,0,0,1.46c.16.61.32,1.22.44,1.83a3.15,3.15,0,0,1,0,1.1,5.72,5.72,0,0,0,.15,2.33,9,9,0,0,1,.2,2.18,9,9,0,0,0,.28,1.94c.11.46.19.92.27,1.38.14.83.23,1.67.4,2.49A11.63,11.63,0,0,1,95.8,38a7.5,7.5,0,0,0,.13,2.41c0,1.52.3,3,.23,4.56a2.66,2.66,0,0,0,0,.63,2.08,2.08,0,0,1-.32,1.57,2.22,2.22,0,0,0-.35,1.65,1.29,1.29,0,0,1-.25,1.12,2.84,2.84,0,0,0-.62,1.49,2.56,2.56,0,0,1-.31,1A2.37,2.37,0,0,0,94.15,53.13ZM73.9,33.52c0-.21-.05-.38-.08-.55s-.11-.35-.13-.52c-.07-.78-.1-1.57-.2-2.34-.17-1.3-.39-2.59-.59-3.88a.72.72,0,0,0-.09-.2l-.65-.29L72,25.28c-.14-.4-.23-.48-.61-.43a6.19,6.19,0,0,0-1.8.46c-.19.09-.39.14-.49.38a2.68,2.68,0,0,0,1.48,1,1.22,1.22,0,0,1,0,.32,1.4,1.4,0,0,0,.56,1.22,10.91,10.91,0,0,1,.83.91c0,.49-.06.88-.1,1.27a1.13,1.13,0,0,1-.15.59,1.13,1.13,0,0,0-.22.88,5.12,5.12,0,0,1-.13,1.24c0,.18-.07.35-.12.57a3.16,3.16,0,0,0,.56.07A17.09,17.09,0,0,0,73.9,33.52ZM63,23.89l.21.92a.69.69,0,0,0,.42-.69Z"/><path class="cls-1" d="M44.43,129l.88-.41a1.48,1.48,0,0,0,1.11-.12,1.61,1.61,0,0,1,.8-.09,6.46,6.46,0,0,1,2.57.49,4,4,0,0,1,1,.44,3.17,3.17,0,0,0,1,.4A2.26,2.26,0,0,1,53.19,131a1.12,1.12,0,0,1,.13.39,2.64,2.64,0,0,0,.82,1.59c.25.3.51.59.73.91a.56.56,0,0,1-.07.77c-.5.39-.69,1-1.13,1.48.06.23.11.47.18.7a1.41,1.41,0,0,1-.46,1.58c-.63.55-1.26,1.09-1.91,1.62a1.41,1.41,0,0,0-.55.7,11.1,11.1,0,0,1-1.07,2.62,1.79,1.79,0,0,0-.13.44l.48.29c.79.45,1.6.88,2.37,1.37a7.2,7.2,0,0,1,1.71,1.45,8.63,8.63,0,0,0,1.86,1.65,2.3,2.3,0,0,1,.38.32,3.87,3.87,0,0,0,1.15.81l1.6.87c.17.09.35.15.53.23.07-.22.07-.48.2-.6a1.19,1.19,0,0,0,.46-.85,7.76,7.76,0,0,1,.78-.16,11.59,11.59,0,0,0,2.68-.47,1.56,1.56,0,0,1,.57-.06,1,1,0,0,1,.93.89,1.87,1.87,0,0,1-1.25,2.2c-.38.19-.74.35-.88.85,1.08.82,2.43,1.15,3.49,1.91.57,0,.9-.35,1.28-.6a1.17,1.17,0,0,0,.31-.57.91.91,0,0,1,.69-.65c.67-.13,1.29-.42,2-.57a2.15,2.15,0,0,1,1.57.13,3.67,3.67,0,0,1-.18,4.15,1.17,1.17,0,0,0-1.07.66,1.55,1.55,0,0,0,.37.26l4.1,1.57c.6.23,1.18.48,1.76.76a9.08,9.08,0,0,0,3.35.83,10.39,10.39,0,0,1,3.07.65,16,16,0,0,0,1.92.51,8.67,8.67,0,0,1,1.33.45c.62.25,1.27.37,1.91.56.37.11.73.26,1.09.38a5.66,5.66,0,0,0,1,.25,24.17,24.17,0,0,1,4.6,1.06,3.12,3.12,0,0,1,.46.17,18.67,18.67,0,0,0,3.49,1.32,4.51,4.51,0,0,1,2.22,1c.23.24.69.21.89.57a1.35,1.35,0,0,1-.75,1.36c-.3.15-.53.45-.84.65a2.33,2.33,0,0,1-1.28.49c-.17,0-.34.17-.51.25-.52.27-1,.55-1.56.79a5.15,5.15,0,0,1-1.62.28,6.16,6.16,0,0,0-3.85,1.45.85.85,0,0,1-.42.19c-.89.18-1.79.32-2.68.51a12.75,12.75,0,0,0-1.83.52,3.86,3.86,0,0,1-1.72.09,6,6,0,0,1-.9-.18l0-.25a2,2,0,0,0-1.24-.22,6.64,6.64,0,0,1-1.41,0c-1-.08-1.93-.11-2.91-.16l-.37.65a.67.67,0,0,1-.18,0,2.23,2.23,0,0,1-.44-.21l-1.59-1.06a2.57,2.57,0,0,0-.65-.36,23.59,23.59,0,0,1-3.49-1.9,1,1,0,0,1-.25-.21c-1.06-.81-2.07-1.67-3.18-2.41-.82-.55-1.67-1.08-2.48-1.67-1.62-1.2-3.31-2.32-4.87-3.61-1.2-1-2.47-1.87-3.59-3-.54-.52-1.17-.93-1.74-1.42-.81-.7-1.67-1.36-2.42-2.14-.42-.44-.92-.8-1.36-1.23-.75-.74-1.49-1.49-2.2-2.27a5.57,5.57,0,0,0-1.63-1.27,3,3,0,0,0-1-.31,2.73,2.73,0,0,1-1-.33c-.53-.28-1.08-.54-1.62-.81a1.39,1.39,0,0,0-.31.2c-.46.48-.92,1-1.37,1.46a2.63,2.63,0,0,1-.87.75,1.44,1.44,0,0,0-.39.42c-.28.35-.54.71-.84,1a5.12,5.12,0,0,1-1.31,1.13,6.94,6.94,0,0,0-2.21,2c-.23.31-.52.58-.78.87a4,4,0,0,0-1,1.23c-.08.2-.29.33-.45.5-.33.36-.69.71-1,1.1a11.62,11.62,0,0,1-1.35,1.46c-.58.52-1.07,1.12-1.62,1.67a9.34,9.34,0,0,1-2,1.87c-.41.23-.78.52-1.17.77a25.47,25.47,0,0,0-2.12,1.74,3.11,3.11,0,0,1-.67.49c-1.1.46-2.06,1.18-3.14,1.67a4.8,4.8,0,0,1-2.82.39,8.1,8.1,0,0,1-1.23-.17,3.54,3.54,0,0,0-2.16-.12,1.94,1.94,0,0,1-1.57-.41,8.86,8.86,0,0,1-.87-.7l.07-.52c-.09,0-.13-.09-.18-.09a3.57,3.57,0,0,1-.57,0c-.21,0-.41-.19-.62-.21a2.45,2.45,0,0,0-.66.11l0-.68c0-.07-.05-.13-.09-.16-.63-.4-1.17-.9-1.78-1.33a2.06,2.06,0,0,0-.9-.36,1.42,1.42,0,0,1-.87-.36c0-.33.22-.41.41-.5a4.28,4.28,0,0,0,.88-.6,1.78,1.78,0,0,1,1.11-.52,1.89,1.89,0,0,0,.68-.28,8,8,0,0,0,.86-.49,2,2,0,0,1,1.56-.4,1.57,1.57,0,0,0,.57-.07,13.44,13.44,0,0,0,2.74-.94A9.11,9.11,0,0,1,19,161a11.91,11.91,0,0,0,2.46-1,30.31,30.31,0,0,0,5.21-3.55A36.8,36.8,0,0,0,30.25,153a7.81,7.81,0,0,1,.67-.62,37.13,37.13,0,0,0,5.51-5.9c1.12-1.52,2.33-3,3.49-4.47a5.42,5.42,0,0,0,.4-.71,4.52,4.52,0,0,1,.51-.95,11,11,0,0,0,1.71-2.55c.41-.76.89-1.48,1.31-2.23.29-.5.54-1,.8-1.55s.42-.85.65-1.27a1.65,1.65,0,0,0,.17-1.13c0-.19-.09-.38-.13-.57a1.55,1.55,0,0,0-.51-.92A1,1,0,0,1,44.43,129Z"/><path class="cls-1" d="M60.58,76.71a9.71,9.71,0,0,0,1.2.1c.78,0,1.55.06,2.32.12a1.72,1.72,0,0,0,.64,0,4,4,0,0,1,1.61,0,.93.93,0,0,1,.82,1.1,12.34,12.34,0,0,0-.2,1.59c-.37,1.92-.42,1.82-2.11,2.3a2.35,2.35,0,0,1-.65,0c-.75,0-1.5-.11-2.26-.16-.29,0-.58,0-.85,0-.35.46-.12.93-.23,1.41a5.59,5.59,0,0,0,2.18.19,1.76,1.76,0,0,1,1.11,0,.79.79,0,0,1,.6.93,3,3,0,0,0-.06.4,2.12,2.12,0,0,1-1.31,2,6,6,0,0,1-1,.51,2.53,2.53,0,0,1-.86.17,14.37,14.37,0,0,1-1.61-.14,2.61,2.61,0,0,0-1.11.12,10.48,10.48,0,0,1-3.42.56,5.54,5.54,0,0,0-2.19.52,2.68,2.68,0,0,0-.55.43c-.22-.08-.48-.15-.72-.26s-.57-.32-.87-.43a1,1,0,0,1-.73-1,3.61,3.61,0,0,0,0-.44l.61-.48c0-.75.57-1.12,1.22-1.42A13.14,13.14,0,0,1,55,84.07L55.4,84a1.55,1.55,0,0,0,0-1,.89.89,0,0,0-.79-.08,10.41,10.41,0,0,0-1.61.52,1.27,1.27,0,0,1-1.09,0A4.7,4.7,0,0,1,51,83a1.33,1.33,0,0,0-1.15-.25c-.93.23-1.37-.44-1.85-1a2.44,2.44,0,0,1-.28-.63,4.15,4.15,0,0,0,.71-1.63c-.33.09-.64.16-.93.26a2.38,2.38,0,0,1-1.74-.13l-4.27-1.77c-.55-.22-1.09-.48-1.66-.66a6.86,6.86,0,0,0-1.5-.29c-.62,0-1.24,0-2,0A3.51,3.51,0,0,0,35.55,78a23.1,23.1,0,0,1-2.07,2.93c-.8,1.09-1.65,2.15-2.47,3.23-.11.15-.2.31-.36.57a10.39,10.39,0,0,0,1.42-.4,5.31,5.31,0,0,1,1.65-.4,28.53,28.53,0,0,0,3.43-.57,2.8,2.8,0,0,1,.64-.08A17.89,17.89,0,0,0,40.53,83a7.48,7.48,0,0,1,3.84.32c.55.22,1.06.53,1.63.7a1,1,0,0,1,.66.76c.12.56.26,1.12.37,1.68a.74.74,0,0,1-.46.86,1.12,1.12,0,0,1-.86.13.42.42,0,0,0-.58.14.8.8,0,0,1-.59.36l-.62.19a1.62,1.62,0,0,1-.87.13.5.5,0,0,0-.38.06.92.92,0,0,1-1.05.11,2,2,0,0,0-.54-.07,1.4,1.4,0,0,0-.22,1,3,3,0,0,1-.06,1.29,1.61,1.61,0,0,0,0,.52c.2,0,.38,0,.49,0a.84.84,0,0,1,.77,0,5.68,5.68,0,0,0,2.39.28,7.44,7.44,0,0,1,2.86,0l.11.72c-.26.18-.08.44-.1.67a1,1,0,0,1-.15.28c-.2.32-.39.64-.6,1l.68,1.06a3.56,3.56,0,0,1-1.54.62c-1,.15-2.09.27-3.13.41-.43.06-.86.12-1.28.2a2.8,2.8,0,0,0-.62.2.72.72,0,0,0-.48.77A3.22,3.22,0,0,1,40,98.62a7.54,7.54,0,0,0-.31,1.6,16.78,16.78,0,0,0-.14,3,16.34,16.34,0,0,1,0,2.1,5.09,5.09,0,0,0,2.66,0c-.06-.34-.12-.68-.17-1-.17-1-.32-2.1-.49-3.15a2.38,2.38,0,0,0-.52-1.18.89.89,0,0,1,.15-1.41l.26-.2,1.15.43a4.31,4.31,0,0,1,2.2-.2,2.3,2.3,0,0,1,.78.2,3.74,3.74,0,0,0,.62.17,13.18,13.18,0,0,1,1.38.47,1,1,0,0,1,.48,1.48,2.6,2.6,0,0,1-.31.57,1.24,1.24,0,0,0-.22,1.08,2.84,2.84,0,0,1-.38,2.2,3.46,3.46,0,0,1-.34.44l-.38.5.7.28a8,8,0,0,1,1.77.79,1.55,1.55,0,0,1,.72,1.17,2.11,2.11,0,0,0-.86,1.38,3.33,3.33,0,0,1-.52.21.8.8,0,0,0-.53.34,1.33,1.33,0,0,1-.57.42,1.86,1.86,0,0,1-1.56.12l-.16,0a6.15,6.15,0,0,1-1.29,0,7.23,7.23,0,0,0-1.22-.39,5.18,5.18,0,0,0-.88,0,35.59,35.59,0,0,0-4.24.66,13.25,13.25,0,0,0-4.16.95,11.13,11.13,0,0,1-2.13.48,21.94,21.94,0,0,0-5.07,1.4A.6.6,0,0,0,26,114a1.09,1.09,0,0,1-.57.75c-.35.2-.55.61-1,.68l-.54-.17a10.06,10.06,0,0,1-2.44.7.93.93,0,0,1-.55,0,5.81,5.81,0,0,1-1.24-.76c-.54-.49-1-1.06-1.5-1.6a3.83,3.83,0,0,1-.92-2.63,1,1,0,0,1,.15-.46c.19-.35.39-.7.61-1.09l.62-.1.2-.47a5.26,5.26,0,0,1,2,.11.67.67,0,0,0,.31,0,12.58,12.58,0,0,0,1.51-.29c1.27-.37,2.52-.79,3.79-1.2a4.16,4.16,0,0,0,.42-.19c-.22-.3-.39-.57-.59-.81a2.53,2.53,0,0,1-.7-2,1.36,1.36,0,0,0-.42-1.11,8.69,8.69,0,0,1-.75-1c.11-.25.21-.44.28-.63s.09-.36.14-.55a2,2,0,0,1,1.57-.13,3,3,0,0,0,1.2,0,.55.55,0,0,0,.38-.26.7.7,0,0,1,.74-.38,1.73,1.73,0,0,1,1.14.34l1.06-.29a1.66,1.66,0,0,1,1.2,1.16,9.74,9.74,0,0,1,.72,1.85,1.44,1.44,0,0,1-.28.37,1.42,1.42,0,0,0-.54,1.58c0,.23.09.47.15.77l2.69-.39a1,1,0,0,0,.07-.78c-.08-.65-.17-1.29-.26-1.94,0-.19,0-.38-.09-.57-.26-1.14-.52-2.28-.79-3.42a5.93,5.93,0,0,0-.57-1.64,4.81,4.81,0,0,0-1.73.3,11.46,11.46,0,0,0-2.69.88,9.1,9.1,0,0,1-2.69.47,2,2,0,0,0-.71.1L24,99.47c-.19-.17-.34-.33-.51-.46a1,1,0,0,1-.45-.81,2.27,2.27,0,0,0-.19-.71,1,1,0,0,1-.07-.75,2.17,2.17,0,0,0,1.34-.53l-.52-.32c.95-.52,1.86-1,2.8-1.51a22,22,0,0,1,3-1.12c1-.33,2-.48,3-.87a5.29,5.29,0,0,0-.6-2.32.47.47,0,0,0-.54-.28,10.64,10.64,0,0,0-1.12.12,1.36,1.36,0,0,1-1.29-.24,1,1,0,0,0-.77-.18c-.32,0-.65,0-1,0-.88,1.05-1.76,2.12-2.65,3.17a8.85,8.85,0,0,1-.74.76c-.44.4-.88.8-1.34,1.18s-.83.62-1.24.91a13,13,0,0,1-3.69,2,19.28,19.28,0,0,1-2,.44.88.88,0,0,1-.32,0,23.58,23.58,0,0,0-2.91-.2,2.24,2.24,0,0,1-.61-.18c-.32-.14-.63-.29-.94-.46a.72.72,0,0,1-.36-.3c-.11-.3-.35-.35-.59-.47a15.32,15.32,0,0,1-1.58-1A1.73,1.73,0,0,0,7.26,95c-.37,0-.54-.43-1-.43L6.65,94l-.31-.64.53-1.53c.85-.77,1.63-1.47,2.4-2.19a3.4,3.4,0,0,1,1.28-.84,4.3,4.3,0,0,1,.87-.16c.37,0,.75,0,1.12-.07.86-.12,1.71-.28,2.56-.42a6.09,6.09,0,0,0,2.32-.93c1.2-.78,2.42-1.55,3.56-2.42a27.57,27.57,0,0,0,3.26-3c1.83-1.94,3.44-4,5.13-6.11.5-.61,1-1.2,1.56-1.77a9.87,9.87,0,0,0,1.36-1.73c.1-.19.18-.39.27-.59L32.18,71l.65-.13c.38-.45.8-.88,1.13-1.36a4.63,4.63,0,0,0,.46-1c.07-.17.11-.36.19-.53a.88.88,0,0,1,.75-.56c.48,0,1-.11,1.45-.12s.73.23.74.74a3.47,3.47,0,0,1,0,.44l.36.3A2.24,2.24,0,0,1,38.8,70a1.32,1.32,0,0,0,.35.63,5.08,5.08,0,0,1,1.1,1.92,4,4,0,0,0,.61.05,20.17,20.17,0,0,1,3.63.4,4.55,4.55,0,0,1,.84.27c.21.07.4.17.61.22a9.45,9.45,0,0,1,2.43,1.08,11.71,11.71,0,0,0,1.25.57c.32.14.67.24,1,.39a.91.91,0,0,1,.49,1.09A2.24,2.24,0,0,1,50.51,78s0,.08,0,.13L54.76,77a1,1,0,0,0,0-.27c0-.19-.07-.37-.11-.55l-.82-.44L54,74.57c-.08-.14-.18-.3-.26-.47a2.57,2.57,0,0,1,0-2.49,5.13,5.13,0,0,0,.76-1.87.94.94,0,0,1,.31-.45c.23-.22.49-.42.74-.63a.61.61,0,0,1,.27-.17A3.69,3.69,0,0,0,57.15,68a1,1,0,0,1,1.2.22,2.54,2.54,0,0,1,.28.29c.56.9,1.11,1.81,1.65,2.72a.83.83,0,0,1,.1.38c0,.58,0,1.15-.05,1.72a8,8,0,0,1-.25,1.06,3,3,0,0,1,.21.4,1,1,0,0,1,.06.55A1.45,1.45,0,0,0,60.58,76.71Z"/><path class="cls-1" d="M68.52,113.67c-.31-.82.44-1.42.31-2.22a.59.59,0,0,0-.15-.21.76.76,0,0,1-.25-.94,7.72,7.72,0,0,1,.43-1.31,9.14,9.14,0,0,0,.38-1.56,1.36,1.36,0,0,0,.47-.74.53.53,0,0,1,.12-.22l1.88-2.23s.06-.12.1-.12c.69-.13.85-.79,1.21-1.24s.76-1.12,1.15-1.68a5.27,5.27,0,0,1,.66-.82,8,8,0,0,0,1.27-1.83,3.81,3.81,0,0,0-.15-.44,41.43,41.43,0,0,1-1.62-3.83,22.1,22.1,0,0,0-1-2.16c-.49-1-1-1.91-1.57-2.94l-1.23,0c-.72,0-1.45-.08-2.18-.1a3.54,3.54,0,0,0-.71.09c-.37,0-.74.12-1.12.15a.9.9,0,0,1-.79-.37l-.09-1.58s.09-.11.13-.12a2.33,2.33,0,0,0,1.51-.86,8,8,0,0,1,3.11-1.85,1.11,1.11,0,0,0,.25-.14,2.32,2.32,0,0,0-.06-.44,3.57,3.57,0,0,0-.19-.45c-.53-1.25-1.09-2.49-1.59-3.75a5.75,5.75,0,0,1-.35-1.43A15.28,15.28,0,0,0,68,76c-.42-1.52-.82-3-1.22-4.58a4,4,0,0,0-.16-.39,3.94,3.94,0,0,1-.61-.19,2.18,2.18,0,0,1-.69-3.16,1.86,1.86,0,0,1,1.91-.94.89.89,0,0,0,.88-.29,4,4,0,0,1,2-1,1.18,1.18,0,0,1,.56,0c.45.09.89.21,1.33.33a1.28,1.28,0,0,1,.84.84,3.56,3.56,0,0,0,.76,1.14c.57.61.81,1.22.22,2a4.68,4.68,0,0,1,.34,2.18,7.88,7.88,0,0,0,.35,2.58,4.36,4.36,0,0,1,.13,1c0,.49.06,1,.09,1.47a2,2,0,0,1,0,.24,5.38,5.38,0,0,0,.69,2.81c.15.35.21.73.33,1.09a7,7,0,0,0,.84,1.84,19.74,19.74,0,0,1,3.43-.07c.38,0,.76,0,1.14,0s.75,0,1.12.08.8,0,1.2,0c.76,0,1.52,0,2.27,0a2.37,2.37,0,0,0,1.31-.37,6.34,6.34,0,0,1,.94-.47,1.53,1.53,0,0,1,.47-.11.7.7,0,0,1,.86.56,3.3,3.3,0,0,1-.56,2.87,1.57,1.57,0,0,1-.74.47,8.53,8.53,0,0,1-1.43.23,4.12,4.12,0,0,0-1.43.23,1.48,1.48,0,0,1-.55.13,20.38,20.38,0,0,1-2.59.08,6.19,6.19,0,0,0-4,1,2.16,2.16,0,0,0,.15,1.39c.32.78.67,1.55,1,2.32l1.11,2.36c.07.14.16.27.25.42a4.87,4.87,0,0,0,1.22-1.12A5.15,5.15,0,0,1,83,91.75a3.79,3.79,0,0,0,.66-.61A12.9,12.9,0,0,1,86,89.3c.2-.12.38-.24.37-.48s.23-.49.44-.65a4.36,4.36,0,0,1,.64-.35.71.71,0,0,1,.89.12,1.19,1.19,0,0,0,.85.42.72.72,0,0,1,.36.18,15.1,15.1,0,0,1,1.34,1,2.6,2.6,0,0,1,.68,2.26,11.34,11.34,0,0,1-.3,1.52,1.28,1.28,0,0,1-.57.77,3.72,3.72,0,0,1-.86.45,1.45,1.45,0,0,0-.93.83,3.26,3.26,0,0,1-2,1.78,4.76,4.76,0,0,0-1.8,1.22.23.23,0,0,0-.1.12,7.25,7.25,0,0,1-1,1.57,12.84,12.84,0,0,0,1.59,2.06,25,25,0,0,0,2.43,2.4,26.45,26.45,0,0,0,2.44,1.89c1.26.89,2.55,1.74,3.84,2.59a6,6,0,0,0,1.08.53c1.1.46,2.2.89,3.31,1.34l.52.2c.16,0,.32.07.47.12a15.36,15.36,0,0,0,3,.77,2.73,2.73,0,0,1,.69.2,7.56,7.56,0,0,0,2.42.65c.42,0,.84.15,1.43.25a1.7,1.7,0,0,1-1.11,0,.62.62,0,0,0-.67.22c.72.29,1.51,0,2.16.27s1.36.16,2.05.45a7.2,7.2,0,0,1-1.86,1.57v1l-1.13,1a.56.56,0,0,1-.2.14,6.11,6.11,0,0,1-.87.19c-.29,0-.46.3-.8.32a6.34,6.34,0,0,0-2.31.68l0,.41s-.09.07-.14.07l-1.53.18a4.56,4.56,0,0,1-.64,0l-1.77-.08a1.66,1.66,0,0,0-.32,0,13.5,13.5,0,0,1-1.73.4,2.74,2.74,0,0,1-2.08-.39l-2.69-2a5.41,5.41,0,0,1-1.13-1.16,7.18,7.18,0,0,0-.89-.94,4,4,0,0,0-.33-.24l-3-3c-.5-.5-1-1-1.52-1.48a27.5,27.5,0,0,1-4.18-4.64l-.7-1a4.76,4.76,0,0,0-1,1c-.23.3-.49.59-.69.91a9.11,9.11,0,0,1-1.1,1.3,7.74,7.74,0,0,0-1.26,1.88,9.61,9.61,0,0,1-.77,1.15l-1.67,2.5c-.08.1-.17.19-.28.31l-.43-.4-.56.19c-.1-.07-.21-.11-.26-.19a1.11,1.11,0,0,0-1.34-.47C69.77,113.48,69.18,113.55,68.52,113.67Z"/><path class="cls-1" d="M51.05,97.41c.16-.3.32-.58.45-.86a1,1,0,0,0,.13-.46,2.85,2.85,0,0,1,.12-1,.83.83,0,0,0,0-.56,7.37,7.37,0,0,0-.52-1.1.79.79,0,0,0-.66-.41,6.58,6.58,0,0,1-1.82-.64c-.3-.11-.36-.26-.56-.77l.58-.08.19-.72a1.18,1.18,0,0,1,.19-.11,9.28,9.28,0,0,0,1.19-.24c1-.35,2.08-.54,3.08-.94a4.45,4.45,0,0,1,1.25-.28c.73-.07,1.45-.23,2.17-.33q.6-.09,1.2-.12a16.43,16.43,0,0,0,4.06-.68,4.2,4.2,0,0,1,2.53,0,1.26,1.26,0,0,1,.84,1.42c0,.38-.13.75-.21,1.13a4.21,4.21,0,0,0-.08,1.62,1,1,0,0,1-.31,1,1.45,1.45,0,0,0-.58,1.12c0,.34-.25.51-.54.64l-.82.4c-.26-.21-.51-.12-.72.23a1.13,1.13,0,0,0-1.47-.19,1.72,1.72,0,0,1-.86.17,2.82,2.82,0,0,1-.41,0,5.74,5.74,0,0,0-3.82.72c-.44.21-.88.4-1.31.63-.12.06-.2.21-.43.47l1-.25c1.16-.26,2.31-.54,3.48-.75A20.21,20.21,0,0,1,61,96.19c1.19,0,2.38,0,3.56,0a9.59,9.59,0,0,1,2.56.36,2.93,2.93,0,0,1,.39.16c-.09.43-.47.61-.68,1l.09.53A4.45,4.45,0,0,1,65,99.63a8,8,0,0,1-2.36.44.59.59,0,0,0,0,.7s.09.08.14.09a3.25,3.25,0,0,0,1.42,0,6.09,6.09,0,0,1,2.33,0,4.19,4.19,0,0,1,1.5.56,2.81,2.81,0,0,1,.34.31,6.5,6.5,0,0,1-1.59.6l.07.44-1,.61-.19.6a10.4,10.4,0,0,1-3.43.71c-.08.56-.07.58.3.71A11.79,11.79,0,0,0,67,106a1.65,1.65,0,0,1,1.62.61c0,.13,0,.34-.08.44-.31.34-.33.86-.73,1.13a.7.7,0,0,0-.21.34,7.08,7.08,0,0,1-1,1.48,1.29,1.29,0,0,1-1.06.5,3.55,3.55,0,0,1-1.52-.07,1.72,1.72,0,0,0-.56-.07l-3.4-.13a7.17,7.17,0,0,0-2.48.31,1.15,1.15,0,0,1-.39.11,20.33,20.33,0,0,0-3.62.79,1.3,1.3,0,0,0-.4.09,1.37,1.37,0,0,1-1,.27c-.42.3-.89.1-1.34.14a1,1,0,0,1-.24,0,.78.78,0,0,1-.74-.82c0-.19,0-.38,0-.57a1.14,1.14,0,0,0-.09-.3l.56-1.06a3.33,3.33,0,0,1,.38-.19,37.16,37.16,0,0,0,3.8-1.59,9.93,9.93,0,0,1,2-.77,5.36,5.36,0,0,0,.84-.35,2.38,2.38,0,0,0-.15-1.31,2.59,2.59,0,0,0-.56,0l-2.4.72a1,1,0,0,0-.31.11,11.21,11.21,0,0,1-2.39,1l-1.12-.28-.84-.78a3.56,3.56,0,0,1,.74-1.73c.63.1,1-.57,1.65-.66a1.08,1.08,0,0,0,1.21-.15,4.53,4.53,0,0,1,1.12-.45c.79-.28,1.55-.63,2.33-1a1.9,1.9,0,0,0-.26-1.2,7.35,7.35,0,0,0-1.82.45.76.76,0,0,0-.38.28,3.38,3.38,0,0,1-1.17.86,1.28,1.28,0,0,1-1,.06c-.62-.16-1.23-.37-1.85-.55a1.49,1.49,0,0,1-1-1.4c0-.07,0-.14.08-.21.45.23.45.23.82.17,0-.34-.45-.29-.48-.59A4.46,4.46,0,0,1,51,98.92a.65.65,0,0,0,.27-.17.55.55,0,0,0,.15-.9C51.29,97.7,51.16,97.56,51.05,97.41Zm9.66-6.63-.41.14a11.68,11.68,0,0,1-3.77.9,1.14,1.14,0,0,0-.83.38c0,.26,0,.56,0,.86s-.1.57-.16.92a19.17,19.17,0,0,0,1.84-.55c.63-.15,1.26-.3,1.9-.4s1.21-.12,1.9-.18A5.11,5.11,0,0,0,60.71,90.78Z"/><path class="cls-1" d="M87.14,79a1.82,1.82,0,0,1-1.85.75,3.37,3.37,0,0,0-1.65.35l-.9.39c-.29-.35-.54-.67-.81-1a6.55,6.55,0,0,0-.74-.75,1,1,0,0,1-.4-.76c0-.43-.12-.86-.18-1.27a1,1,0,0,0-.1-.15l-.82-.64c-.5.09-1,.18-1.5.29a3.5,3.5,0,0,0-.55.22l-1.21-1.1a2.89,2.89,0,0,1,.55-1.6s0-.06,0-.06c.66-.28.81-1,1.35-1.44a7.52,7.52,0,0,0,.62-.64,5,5,0,0,1,.4-.4,2.79,2.79,0,0,1,.33-.19c.24.12.44.31.65.31a1.8,1.8,0,0,0,.75-.25,1.61,1.61,0,0,1,1.89.12,1.86,1.86,0,0,0,.65.31,5.86,5.86,0,0,1,3.17,1.82c.23.26.54.45.79.69A1.34,1.34,0,0,1,88,75.59a16.68,16.68,0,0,0-.53,2C87.37,78,87.26,78.44,87.14,79Z"/></svg>