<?xml version="1.0" encoding="utf-8"?>
<!-- Generator: Adobe Illustrator 22.0.1, SVG Export Plug-In . SVG Version: 6.00 Build 0)  -->
<svg version="1.1" id="圖層_1" xmlns="http://www.w3.org/2000/svg" xmlns:xlink="http://www.w3.org/1999/xlink" x="0px" y="0px"
	 viewBox="0 0 115 115" style="enable-background:new 0 0 115 115;" xml:space="preserve">
<style type="text/css">
	.st0{fill:#960014;}
	.st1{fill:#FFFFFF;}
	.st2{enable-background:new    ;}
</style>
<title>2020-12-17-出圖元件</title>
<rect x="17.5" y="17.4" transform="matrix(0.7071 -0.7071 0.7071 0.7071 -23.7957 57.5505)" class="st0" width="80.1" height="80.1"/>
<polygon class="st1" points="57.5,37.1 68.3,47.9 69.5,46.7 57.5,34.7 45.5,46.7 46.7,47.9 "/>
<g class="st2">
	<path class="st1" d="M47,58.5h-4.9v15.2h-1.9V58.5h-4.9v-1.7H47V58.5z"/>
</g>
<g class="st2">
	<path class="st1" d="M49.8,65.5c0-2.7,0.7-4.9,2.2-6.5c1.5-1.6,3.5-2.4,6.1-2.4c2.4,0,4.3,0.8,5.7,2.4s2.2,3.6,2.2,6.2
		c0,2.7-0.7,4.9-2.2,6.5s-3.4,2.5-6,2.5c-2.4,0-4.3-0.8-5.8-2.4C50.5,70.1,49.8,68,49.8,65.5z M51.8,65.3c0,2,0.5,3.7,1.6,5.1
		s2.6,2,4.4,2c2,0,3.5-0.6,4.6-1.9c1.1-1.3,1.6-3,1.6-5.1c0-2.2-0.5-4-1.6-5.2c-1-1.3-2.5-1.9-4.5-1.9c-1.9,0-3.4,0.7-4.5,2
		C52.3,61.6,51.8,63.3,51.8,65.3z"/>
	<path class="st1" d="M73.3,67.4v6.4h-1.9v-17H76c1.8,0,3.2,0.4,4.2,1.3c1,0.9,1.5,2.1,1.5,3.7c0,1.7-0.6,3-1.8,4
		c-1.2,1-2.7,1.5-4.4,1.4H73.3z M73.3,58.6v7.1h2.1c1.4,0,2.5-0.3,3.2-0.9c0.7-0.6,1.1-1.5,1.1-2.7c0-2.3-1.4-3.4-4.1-3.4H73.3z"/>
</g>
</svg>
