<svg id="圖層_1" data-name="圖層 1" xmlns="http://www.w3.org/2000/svg" viewBox="0 0 118.49 30"><defs><style>.cls-1{fill:#51b3da;}.cls-2,.cls-3{fill:#fff;}.cls-3{font-size:20px;font-family:MicrosoftJhengHeiRegular, Microsoft JhengHei;letter-spacing:-0.03em;}.cls-4{letter-spacing:0.02em;}.cls-5{letter-spacing:0.02em;}</style></defs><title>2020-12-17-出圖元件</title><rect class="cls-1" width="118.49" height="30" rx="4"/><path class="cls-2" d="M28.28,10.79C28.12,18,23.59,23,16.72,23.29A11.37,11.37,0,0,1,10,21.42a8.29,8.29,0,0,0,6.09-1.72,4.21,4.21,0,0,1-3.9-3,6.17,6.17,0,0,0,1.72,0,4.27,4.27,0,0,1-3.29-4.22,3.19,3.19,0,0,0,1.72.47c-1.4-.78-2.34-3.75-1.25-5.63a12.36,12.36,0,0,0,8.6,4.38C18.59,7.35,24.53,5,26.88,8A10.76,10.76,0,0,0,29.53,7a4.42,4.42,0,0,1-1.72,2.35A9.21,9.21,0,0,0,30,8.76,4.18,4.18,0,0,1,28.28,10.79Z"/><text class="cls-3" transform="translate(40 22.29) scale(1.01 1)">T<tspan class="cls-4" x="10.54" y="0">wit</tspan><tspan class="cls-5" x="39.98" y="0">t</tspan><tspan class="cls-4" x="47.57" y="0">er</tspan></text></svg>