<svg id="圖層_1" data-name="圖層 1" xmlns="http://www.w3.org/2000/svg" viewBox="0 0 60 60"><defs><style>.cls-1{fill:#960014;}</style></defs><title>2020-12-17-出圖元件</title><path class="cls-1" d="M60,24.75a1.17,1.17,0,0,0-1.18-1.17h-3.6a25.92,25.92,0,0,0-2.85-6.88l2.55-2.55a1.18,1.18,0,0,0,0-1.66L47.51,5.08a1.18,1.18,0,0,0-1.66,0L43.3,7.63a25.57,25.57,0,0,0-6.88-2.84V1.18A1.17,1.17,0,0,0,35.25,0H24.77A1.16,1.16,0,0,0,23.6,1.17V4.78a25.92,25.92,0,0,0-6.88,2.85L14.16,5.07a1.17,1.17,0,0,0-1.66,0L5.09,12.48a1.17,1.17,0,0,0,0,1.66L7.65,16.7a25.57,25.57,0,0,0-2.84,6.88H1.18A1.17,1.17,0,0,0,0,24.75V35.23A1.16,1.16,0,0,0,1.17,36.4H4.81a25.57,25.57,0,0,0,2.84,6.88L5.08,45.85a1.18,1.18,0,0,0,0,1.66l7.41,7.41a1.18,1.18,0,0,0,1.66,0l2.57-2.57a25.57,25.57,0,0,0,6.88,2.84v3.64A1.16,1.16,0,0,0,24.77,60H35.25a1.17,1.17,0,0,0,1.17-1.18V55.19a25.57,25.57,0,0,0,6.88-2.84l2.56,2.56a1.17,1.17,0,0,0,.83.34h0a1.17,1.17,0,0,0,.83-.34l7.41-7.41a1.17,1.17,0,0,0,0-1.66l-2.56-2.56a25.92,25.92,0,0,0,2.85-6.88h3.61A1.16,1.16,0,0,0,60,35.23Zm-5.71,9.31a1.17,1.17,0,0,0-1.15.92,23.33,23.33,0,0,1-3.24,7.83,1.18,1.18,0,0,0,.15,1.47l2.39,2.39-5.75,5.76L44.3,50a1.17,1.17,0,0,0-1.46-.15A23.5,23.5,0,0,1,35,53.12a1.18,1.18,0,0,0-.93,1.15v3.38H25.94V54.27A1.17,1.17,0,0,0,25,53.12a23.33,23.33,0,0,1-7.83-3.24,1.16,1.16,0,0,0-.64-.19,1.21,1.21,0,0,0-.83.34l-2.4,2.4L7.57,46.68l2.4-2.4a1.18,1.18,0,0,0,.15-1.47A23.33,23.33,0,0,1,6.88,35a1.16,1.16,0,0,0-1.14-.92H2.34V25.92H5.74A1.17,1.17,0,0,0,6.88,25a23.47,23.47,0,0,1,3.24-7.84A1.17,1.17,0,0,0,10,15.7l-2.4-2.39,5.76-5.76L15.72,10a1.18,1.18,0,0,0,1.47.15A23.33,23.33,0,0,1,25,6.86a1.17,1.17,0,0,0,.92-1.15V2.34h8.14V5.71A1.17,1.17,0,0,0,35,6.86a23.5,23.5,0,0,1,7.83,3.24A1.17,1.17,0,0,0,44.3,10l2.38-2.38,5.75,5.75L50.05,15.7a1.17,1.17,0,0,0-.15,1.46A23.47,23.47,0,0,1,53.14,25a1.17,1.17,0,0,0,1.15.92h3.36v8.14Z"/><path class="cls-1" d="M46.9,19.44a1.18,1.18,0,0,0-2,1.25,17.57,17.57,0,1,1-5.61-5.61,1.18,1.18,0,0,0,1.25-2,19.94,19.94,0,0,0-24.64,2.82,19.92,19.92,0,1,0,31,3.53Z"/><path class="cls-1" d="M44.13,16l0,0a1.17,1.17,0,0,0-1.66,1.66l0,0A1.17,1.17,0,0,0,44.13,16Z"/><path class="cls-1" d="M30,14.84a4,4,0,0,0-1.17,7.79V40.31a1.17,1.17,0,1,0,2.34,0V22.63A4,4,0,0,0,30,14.84Zm0,5.63a1.64,1.64,0,1,1,1.64-1.64A1.65,1.65,0,0,1,30,20.47Z"/><path class="cls-1" d="M30.83,43.45a1.18,1.18,0,0,0-1.66,0,1.17,1.17,0,1,0,1.66,0Z"/><path class="cls-1" d="M25.33,28.83H21.49a3.52,3.52,0,1,0,0,2.34h2.67v8.32a1.17,1.17,0,1,0,2.34,0V30A1.17,1.17,0,0,0,25.33,28.83Zm-7.15,2.35A1.18,1.18,0,1,1,19.35,30,1.17,1.17,0,0,1,18.18,31.18Z"/><path class="cls-1" d="M41.82,26.49a3.52,3.52,0,0,0-3.31,2.34H34.67A1.17,1.17,0,0,0,33.5,30V43.24a1.18,1.18,0,0,0,2.35,0V31.17h2.66a3.51,3.51,0,1,0,3.31-4.68Zm0,4.69A1.18,1.18,0,1,1,43,30,1.18,1.18,0,0,1,41.82,31.18Z"/></svg>